solid OpenSCAD_Model
  facet normal 1 0 1.22465e-16
    outer loop
      vertex 3.55148e-15 0 -29
      vertex 3.55148e-15 -15 -29
      vertex 4.28626e-15 -15 -35
    endloop
  endfacet
  facet normal 1 0 1.22465e-16
    outer loop
      vertex 3.55148e-15 82 -29
      vertex 3.55148e-15 76 -29
      vertex 4.28626e-15 97 -35
    endloop
  endfacet
  facet normal 1 0 1.22465e-16
    outer loop
      vertex 4.28626e-15 97 -35
      vertex 3.55148e-15 0 -29
      vertex 4.28626e-15 -15 -35
    endloop
  endfacet
  facet normal 1 0 1.22465e-16
    outer loop
      vertex 4.89859e-16 8 -4
      vertex 0 8 0
      vertex 4.89859e-16 6 -4
    endloop
  endfacet
  facet normal 1 0 1.22465e-16
    outer loop
      vertex 3.55148e-15 76 -29
      vertex 3.55148e-15 6 -29
      vertex 4.28626e-15 97 -35
    endloop
  endfacet
  facet normal 1 0 1.22465e-16
    outer loop
      vertex 3.55148e-15 97 -29
      vertex 3.55148e-15 82 -29
      vertex 4.28626e-15 97 -35
    endloop
  endfacet
  facet normal 1 0 1.22465e-16
    outer loop
      vertex 0 82 0
      vertex 4.89859e-16 76 -4
      vertex 3.55148e-15 82 -29
    endloop
  endfacet
  facet normal 1 0 1.22465e-16
    outer loop
      vertex 0 82 0
      vertex 4.89859e-16 74 -4
      vertex 4.89859e-16 76 -4
    endloop
  endfacet
  facet normal 1 0 1.22465e-16
    outer loop
      vertex 3.55148e-15 6 -29
      vertex 3.55148e-15 0 -29
      vertex 4.28626e-15 97 -35
    endloop
  endfacet
  facet normal 1 0 1.22465e-16
    outer loop
      vertex 0 74 0
      vertex 4.89859e-16 74 -4
      vertex 0 82 0
    endloop
  endfacet
  facet normal 1 0 1.22465e-16
    outer loop
      vertex 0 0 0
      vertex 4.89859e-16 6 -4
      vertex 0 8 0
    endloop
  endfacet
  facet normal 1 0 1.22465e-16
    outer loop
      vertex 3.55148e-15 6 -29
      vertex 4.89859e-16 6 -4
      vertex 3.55148e-15 0 -29
    endloop
  endfacet
  facet normal 1 0 1.22465e-16
    outer loop
      vertex 4.89859e-16 76 -4
      vertex 3.55148e-15 76 -29
      vertex 3.55148e-15 82 -29
    endloop
  endfacet
  facet normal 1 0 1.22465e-16
    outer loop
      vertex 0 0 0
      vertex 3.55148e-15 0 -29
      vertex 4.89859e-16 6 -4
    endloop
  endfacet
  facet normal 0 -1 0
    outer loop
      vertex 4.28626e-15 -15 -35
      vertex 3.55148e-15 -15 -29
      vertex -46.5 -15 -29
    endloop
  endfacet
  facet normal 0 -1 0
    outer loop
      vertex -46.5 -15 -35
      vertex 4.28626e-15 -15 -35
      vertex -46.5 -15 -29
    endloop
  endfacet
  facet normal -1.22465e-16 0 1
    outer loop
      vertex -4.78647 -8.11832 -29
      vertex 3.55148e-15 -15 -29
      vertex 3.55148e-15 0 -29
    endloop
  endfacet
  facet normal -1.22465e-16 0 1
    outer loop
      vertex -39.2865 -9.88168 -29
      vertex -46.5 -15 -29
      vertex 3.55148e-15 0 -29
    endloop
  endfacet
  facet normal -1.22465e-16 0 1
    outer loop
      vertex -6.46352 -7.57341 -29
      vertex -4.78647 -8.11832 -29
      vertex 3.55148e-15 0 -29
    endloop
  endfacet
  facet normal -1.22465e-16 0 1
    outer loop
      vertex -4.78647 -9.88168 -29
      vertex 3.55148e-15 -15 -29
      vertex -4.78647 -8.11832 -29
    endloop
  endfacet
  facet normal -1.22465e-16 0 1
    outer loop
      vertex -6.46352 -10.4266 -29
      vertex 3.55148e-15 -15 -29
      vertex -4.78647 -9.88168 -29
    endloop
  endfacet
  facet normal -1.22465e-16 0 1
    outer loop
      vertex -7.5 -9 -29
      vertex -6.46352 -7.57341 -29
      vertex -46.5 -15 -29
    endloop
  endfacet
  facet normal -1.22465e-16 0 1
    outer loop
      vertex -46.5 -15 -29
      vertex 3.55148e-15 -15 -29
      vertex -6.46352 -10.4266 -29
    endloop
  endfacet
  facet normal -1.22465e-16 0 1
    outer loop
      vertex -40.9635 -10.4266 -29
      vertex -42 -9 -29
      vertex -46.5 -15 -29
    endloop
  endfacet
  facet normal -1.22465e-16 0 1
    outer loop
      vertex -46.5 -15 -29
      vertex -6.46352 -7.57341 -29
      vertex 3.55148e-15 0 -29
    endloop
  endfacet
  facet normal -1.22465e-16 0 1
    outer loop
      vertex -46.5 0 -29
      vertex -39.2865 -8.11832 -29
      vertex 3.55148e-15 0 -29
    endloop
  endfacet
  facet normal -1.22465e-16 0 1
    outer loop
      vertex -39.2865 -8.11832 -29
      vertex -39.2865 -9.88168 -29
      vertex 3.55148e-15 0 -29
    endloop
  endfacet
  facet normal -1.22465e-16 0 1
    outer loop
      vertex -40.9635 -10.4266 -29
      vertex -46.5 -15 -29
      vertex -39.2865 -9.88168 -29
    endloop
  endfacet
  facet normal -1.22465e-16 0 1
    outer loop
      vertex -46.5 0 -29
      vertex -46.5 -15 -29
      vertex -42 -9 -29
    endloop
  endfacet
  facet normal -1.22465e-16 0 1
    outer loop
      vertex -46.5 0 -29
      vertex -40.9635 -7.57341 -29
      vertex -39.2865 -8.11832 -29
    endloop
  endfacet
  facet normal -1.22465e-16 0 1
    outer loop
      vertex -46.5 0 -29
      vertex -42 -9 -29
      vertex -40.9635 -7.57341 -29
    endloop
  endfacet
  facet normal -1.22465e-16 0 1
    outer loop
      vertex -6.46352 -10.4266 -29
      vertex -7.5 -9 -29
      vertex -46.5 -15 -29
    endloop
  endfacet
  facet normal 0 -1 0
    outer loop
      vertex 3.55148e-15 0 -29
      vertex 0 0 0
      vertex -46.5 0 -5.69461e-15
    endloop
  endfacet
  facet normal 0 -1 0
    outer loop
      vertex -46.5 0 -29
      vertex 3.55148e-15 0 -29
      vertex -46.5 0 -5.69461e-15
    endloop
  endfacet
  facet normal -1.22465e-16 0 1
    outer loop
      vertex -46.5 0 -5.69461e-15
      vertex 0 0 0
      vertex 0 8 0
    endloop
  endfacet
  facet normal -1.22465e-16 0 1
    outer loop
      vertex -46.5 8 -5.69461e-15
      vertex -46.5 0 -5.69461e-15
      vertex 0 8 0
    endloop
  endfacet
  facet normal 0 1 0
    outer loop
      vertex 0 8 0
      vertex 4.89859e-16 8 -4
      vertex -46.5 8 -5.69461e-15
    endloop
  endfacet
  facet normal 0 1 0
    outer loop
      vertex -46.5 8 -5.69461e-15
      vertex 4.89859e-16 8 -4
      vertex -46.5 8 -4
    endloop
  endfacet
  facet normal 1.22465e-16 0 -1
    outer loop
      vertex 4.89859e-16 6 -4
      vertex -46.5 6 -4
      vertex 4.89859e-16 8 -4
    endloop
  endfacet
  facet normal 1.22465e-16 0 -1
    outer loop
      vertex 4.89859e-16 8 -4
      vertex -46.5 6 -4
      vertex -46.5 8 -4
    endloop
  endfacet
  facet normal 0 1 0
    outer loop
      vertex -46.5 6 -29
      vertex -46.5 6 -4
      vertex 3.55148e-15 6 -29
    endloop
  endfacet
  facet normal 0 1 0
    outer loop
      vertex 3.55148e-15 6 -29
      vertex -46.5 6 -4
      vertex 4.89859e-16 6 -4
    endloop
  endfacet
  facet normal -1.22465e-16 0 1
    outer loop
      vertex -45 14.5 -29
      vertex -46.5 76 -29
      vertex -46.5 6 -29
    endloop
  endfacet
  facet normal -1.22465e-16 0 1
    outer loop
      vertex -6.92705 16.2634 -29
      vertex -5.42705 17.3532 -29
      vertex 3.55148e-15 76 -29
    endloop
  endfacet
  facet normal -1.22465e-16 0 1
    outer loop
      vertex 3.55148e-15 6 -29
      vertex -3.57295 11.6468 -29
      vertex -46.5 6 -29
    endloop
  endfacet
  facet normal -1.22465e-16 0 1
    outer loop
      vertex 3.55148e-15 6 -29
      vertex -2.07295 12.7366 -29
      vertex -3.57295 11.6468 -29
    endloop
  endfacet
  facet normal -1.22465e-16 0 1
    outer loop
      vertex -3.57295 11.6468 -29
      vertex -5.42705 11.6468 -29
      vertex -46.5 6 -29
    endloop
  endfacet
  facet normal -1.22465e-16 0 1
    outer loop
      vertex -6.92705 16.2634 -29
      vertex 3.55148e-15 76 -29
      vertex -7.5 14.5 -29
    endloop
  endfacet
  facet normal -1.22465e-16 0 1
    outer loop
      vertex -2.07295 16.2634 -29
      vertex -1.5 14.5 -29
      vertex 3.55148e-15 76 -29
    endloop
  endfacet
  facet normal -1.22465e-16 0 1
    outer loop
      vertex -3.57295 17.3532 -29
      vertex 3.55148e-15 76 -29
      vertex -5.42705 17.3532 -29
    endloop
  endfacet
  facet normal -1.22465e-16 0 1
    outer loop
      vertex -2.07295 16.2634 -29
      vertex 3.55148e-15 76 -29
      vertex -3.57295 17.3532 -29
    endloop
  endfacet
  facet normal -1.22465e-16 0 1
    outer loop
      vertex 3.55148e-15 6 -29
      vertex -1.5 14.5 -29
      vertex -2.07295 12.7366 -29
    endloop
  endfacet
  facet normal -1.22465e-16 0 1
    outer loop
      vertex 3.55148e-15 6 -29
      vertex 3.55148e-15 76 -29
      vertex -1.5 14.5 -29
    endloop
  endfacet
  facet normal -1.22465e-16 0 1
    outer loop
      vertex -42.9271 11.6468 -29
      vertex -44.4271 12.7366 -29
      vertex -46.5 6 -29
    endloop
  endfacet
  facet normal -1.22465e-16 0 1
    outer loop
      vertex -39.5729 16.2634 -29
      vertex -2.07295 65.7366 -29
      vertex -3.57295 64.6468 -29
    endloop
  endfacet
  facet normal -1.22465e-16 0 1
    outer loop
      vertex -2.07295 69.2634 -29
      vertex -1.5 67.5 -29
      vertex 3.55148e-15 76 -29
    endloop
  endfacet
  facet normal -1.22465e-16 0 1
    outer loop
      vertex -16.0729 70.3532 -29
      vertex -7.5 67.5 -29
      vertex -6.92705 69.2634 -29
    endloop
  endfacet
  facet normal -1.22465e-16 0 1
    outer loop
      vertex 3.55148e-15 76 -29
      vertex -46.5 76 -29
      vertex -6.92705 69.2634 -29
    endloop
  endfacet
  facet normal -1.22465e-16 0 1
    outer loop
      vertex -3.57295 70.3532 -29
      vertex -2.07295 69.2634 -29
      vertex 3.55148e-15 76 -29
    endloop
  endfacet
  facet normal -1.22465e-16 0 1
    outer loop
      vertex 3.55148e-15 76 -29
      vertex -6.92705 69.2634 -29
      vertex -5.42705 70.3532 -29
    endloop
  endfacet
  facet normal -1.22465e-16 0 1
    outer loop
      vertex -5.42705 70.3532 -29
      vertex -3.57295 70.3532 -29
      vertex 3.55148e-15 76 -29
    endloop
  endfacet
  facet normal -1.22465e-16 0 1
    outer loop
      vertex -14 14.5 -29
      vertex -14.5729 12.7366 -29
      vertex -7.5 14.5 -29
    endloop
  endfacet
  facet normal -1.22465e-16 0 1
    outer loop
      vertex -7.5 14.5 -29
      vertex -1.5 67.5 -29
      vertex -2.07295 65.7366 -29
    endloop
  endfacet
  facet normal -1.22465e-16 0 1
    outer loop
      vertex -7.5 14.5 -29
      vertex 3.55148e-15 76 -29
      vertex -1.5 67.5 -29
    endloop
  endfacet
  facet normal -1.22465e-16 0 1
    outer loop
      vertex -19.4271 16.2634 -29
      vertex -17.9271 17.3532 -29
      vertex -2.07295 65.7366 -29
    endloop
  endfacet
  facet normal -1.22465e-16 0 1
    outer loop
      vertex -6.92705 12.7366 -29
      vertex -7.5 14.5 -29
      vertex -14.5729 12.7366 -29
    endloop
  endfacet
  facet normal -1.22465e-16 0 1
    outer loop
      vertex -6.92705 12.7366 -29
      vertex -16.0729 11.6468 -29
      vertex -46.5 6 -29
    endloop
  endfacet
  facet normal -1.22465e-16 0 1
    outer loop
      vertex -6.92705 12.7366 -29
      vertex -14.5729 12.7366 -29
      vertex -16.0729 11.6468 -29
    endloop
  endfacet
  facet normal -1.22465e-16 0 1
    outer loop
      vertex -16.0729 11.6468 -29
      vertex -17.9271 11.6468 -29
      vertex -46.5 6 -29
    endloop
  endfacet
  facet normal -1.22465e-16 0 1
    outer loop
      vertex -17.9271 11.6468 -29
      vertex -19.4271 12.7366 -29
      vertex -46.5 6 -29
    endloop
  endfacet
  facet normal -1.22465e-16 0 1
    outer loop
      vertex -27.0729 12.7366 -29
      vertex -28.5729 11.6468 -29
      vertex -20 14.5 -29
    endloop
  endfacet
  facet normal -1.22465e-16 0 1
    outer loop
      vertex -17.9271 17.3532 -29
      vertex -16.0729 17.3532 -29
      vertex -2.07295 65.7366 -29
    endloop
  endfacet
  facet normal -1.22465e-16 0 1
    outer loop
      vertex -14 67.5 -29
      vertex -14.5729 65.7366 -29
      vertex -6.92705 65.7366 -29
    endloop
  endfacet
  facet normal -1.22465e-16 0 1
    outer loop
      vertex -7.5 14.5 -29
      vertex -2.07295 65.7366 -29
      vertex -16.0729 17.3532 -29
    endloop
  endfacet
  facet normal -1.22465e-16 0 1
    outer loop
      vertex -7.5 14.5 -29
      vertex -16.0729 17.3532 -29
      vertex -14.5729 16.2634 -29
    endloop
  endfacet
  facet normal -1.22465e-16 0 1
    outer loop
      vertex -28.5729 70.3532 -29
      vertex -27.0729 69.2634 -29
      vertex -20 67.5 -29
    endloop
  endfacet
  facet normal -1.22465e-16 0 1
    outer loop
      vertex -7.5 14.5 -29
      vertex -14.5729 16.2634 -29
      vertex -14 14.5 -29
    endloop
  endfacet
  facet normal -1.22465e-16 0 1
    outer loop
      vertex -30.4271 11.6468 -29
      vertex -31.9271 12.7366 -29
      vertex -46.5 6 -29
    endloop
  endfacet
  facet normal -1.22465e-16 0 1
    outer loop
      vertex -41.0729 11.6468 -29
      vertex -42.9271 11.6468 -29
      vertex -46.5 6 -29
    endloop
  endfacet
  facet normal -1.22465e-16 0 1
    outer loop
      vertex -44.4271 12.7366 -29
      vertex -45 14.5 -29
      vertex -46.5 6 -29
    endloop
  endfacet
  facet normal -1.22465e-16 0 1
    outer loop
      vertex -16.0729 70.3532 -29
      vertex -14.5729 69.2634 -29
      vertex -7.5 67.5 -29
    endloop
  endfacet
  facet normal -1.22465e-16 0 1
    outer loop
      vertex -14.5729 69.2634 -29
      vertex -6.92705 65.7366 -29
      vertex -7.5 67.5 -29
    endloop
  endfacet
  facet normal -1.22465e-16 0 1
    outer loop
      vertex -16.0729 70.3532 -29
      vertex -46.5 76 -29
      vertex -17.9271 70.3532 -29
    endloop
  endfacet
  facet normal -1.22465e-16 0 1
    outer loop
      vertex -14.5729 69.2634 -29
      vertex -14 67.5 -29
      vertex -6.92705 65.7366 -29
    endloop
  endfacet
  facet normal -1.22465e-16 0 1
    outer loop
      vertex -6.92705 69.2634 -29
      vertex -46.5 76 -29
      vertex -16.0729 70.3532 -29
    endloop
  endfacet
  facet normal -1.22465e-16 0 1
    outer loop
      vertex -28.5729 11.6468 -29
      vertex -30.4271 11.6468 -29
      vertex -46.5 6 -29
    endloop
  endfacet
  facet normal -1.22465e-16 0 1
    outer loop
      vertex -20 14.5 -29
      vertex -19.4271 16.2634 -29
      vertex -27.0729 12.7366 -29
    endloop
  endfacet
  facet normal -1.22465e-16 0 1
    outer loop
      vertex -19.4271 12.7366 -29
      vertex -28.5729 11.6468 -29
      vertex -46.5 6 -29
    endloop
  endfacet
  facet normal -1.22465e-16 0 1
    outer loop
      vertex -19.4271 12.7366 -29
      vertex -20 14.5 -29
      vertex -28.5729 11.6468 -29
    endloop
  endfacet
  facet normal -1.22465e-16 0 1
    outer loop
      vertex -31.9271 16.2634 -29
      vertex -30.4271 17.3532 -29
      vertex -2.07295 65.7366 -29
    endloop
  endfacet
  facet normal -1.22465e-16 0 1
    outer loop
      vertex -31.9271 12.7366 -29
      vertex -32.5 14.5 -29
      vertex -46.5 6 -29
    endloop
  endfacet
  facet normal -1.22465e-16 0 1
    outer loop
      vertex -32.5 14.5 -29
      vertex -31.9271 16.2634 -29
      vertex -46.5 6 -29
    endloop
  endfacet
  facet normal -1.22465e-16 0 1
    outer loop
      vertex -30.4271 17.3532 -29
      vertex -28.5729 17.3532 -29
      vertex -2.07295 65.7366 -29
    endloop
  endfacet
  facet normal -1.22465e-16 0 1
    outer loop
      vertex -26.5 67.5 -29
      vertex -27.0729 65.7366 -29
      vertex -17.9271 64.6468 -29
    endloop
  endfacet
  facet normal -1.22465e-16 0 1
    outer loop
      vertex -19.4271 16.2634 -29
      vertex -2.07295 65.7366 -29
      vertex -28.5729 17.3532 -29
    endloop
  endfacet
  facet normal -1.22465e-16 0 1
    outer loop
      vertex -19.4271 16.2634 -29
      vertex -28.5729 17.3532 -29
      vertex -27.0729 16.2634 -29
    endloop
  endfacet
  facet normal -1.22465e-16 0 1
    outer loop
      vertex -31.9271 69.2634 -29
      vertex -30.4271 70.3532 -29
      vertex -46.5 76 -29
    endloop
  endfacet
  facet normal -1.22465e-16 0 1
    outer loop
      vertex -19.4271 16.2634 -29
      vertex -27.0729 16.2634 -29
      vertex -26.5 14.5 -29
    endloop
  endfacet
  facet normal -1.22465e-16 0 1
    outer loop
      vertex -41.0729 17.3532 -29
      vertex -39.5729 16.2634 -29
      vertex -6.92705 65.7366 -29
    endloop
  endfacet
  facet normal -1.22465e-16 0 1
    outer loop
      vertex -39.5729 16.2634 -29
      vertex -3.57295 64.6468 -29
      vertex -5.42705 64.6468 -29
    endloop
  endfacet
  facet normal -1.22465e-16 0 1
    outer loop
      vertex -39.5729 16.2634 -29
      vertex -39 14.5 -29
      vertex -2.07295 65.7366 -29
    endloop
  endfacet
  facet normal -1.22465e-16 0 1
    outer loop
      vertex -44.4271 16.2634 -29
      vertex -42.9271 17.3532 -29
      vertex -28.5729 64.6468 -29
    endloop
  endfacet
  facet normal -1.22465e-16 0 1
    outer loop
      vertex -31.9271 65.7366 -29
      vertex -46.5 76 -29
      vertex -30.4271 64.6468 -29
    endloop
  endfacet
  facet normal -1.22465e-16 0 1
    outer loop
      vertex -32.5 67.5 -29
      vertex -31.9271 69.2634 -29
      vertex -46.5 76 -29
    endloop
  endfacet
  facet normal -1.22465e-16 0 1
    outer loop
      vertex -44.4271 69.2634 -29
      vertex -42.9271 70.3532 -29
      vertex -46.5 76 -29
    endloop
  endfacet
  facet normal -1.22465e-16 0 1
    outer loop
      vertex -45 67.5 -29
      vertex -44.4271 69.2634 -29
      vertex -46.5 76 -29
    endloop
  endfacet
  facet normal -1.22465e-16 0 1
    outer loop
      vertex -26.5 14.5 -29
      vertex -27.0729 12.7366 -29
      vertex -19.4271 16.2634 -29
    endloop
  endfacet
  facet normal -1.22465e-16 0 1
    outer loop
      vertex -19.4271 69.2634 -29
      vertex -17.9271 70.3532 -29
      vertex -46.5 76 -29
    endloop
  endfacet
  facet normal -1.22465e-16 0 1
    outer loop
      vertex -20 67.5 -29
      vertex -19.4271 69.2634 -29
      vertex -28.5729 70.3532 -29
    endloop
  endfacet
  facet normal -1.22465e-16 0 1
    outer loop
      vertex -28.5729 70.3532 -29
      vertex -19.4271 69.2634 -29
      vertex -46.5 76 -29
    endloop
  endfacet
  facet normal -1.22465e-16 0 1
    outer loop
      vertex -31.9271 65.7366 -29
      vertex -32.5 67.5 -29
      vertex -46.5 76 -29
    endloop
  endfacet
  facet normal -1.22465e-16 0 1
    outer loop
      vertex -30.4271 70.3532 -29
      vertex -28.5729 70.3532 -29
      vertex -46.5 76 -29
    endloop
  endfacet
  facet normal -1.22465e-16 0 1
    outer loop
      vertex -31.9271 16.2634 -29
      vertex -39.5729 12.7366 -29
      vertex -46.5 6 -29
    endloop
  endfacet
  facet normal -1.22465e-16 0 1
    outer loop
      vertex -31.9271 16.2634 -29
      vertex -2.07295 65.7366 -29
      vertex -39.5729 12.7366 -29
    endloop
  endfacet
  facet normal -1.22465e-16 0 1
    outer loop
      vertex -39.5729 12.7366 -29
      vertex -41.0729 11.6468 -29
      vertex -46.5 6 -29
    endloop
  endfacet
  facet normal -1.22465e-16 0 1
    outer loop
      vertex -44.4271 16.2634 -29
      vertex -28.5729 64.6468 -29
      vertex -30.4271 64.6468 -29
    endloop
  endfacet
  facet normal -1.22465e-16 0 1
    outer loop
      vertex -45 67.5 -29
      vertex -46.5 76 -29
      vertex -45 14.5 -29
    endloop
  endfacet
  facet normal -1.22465e-16 0 1
    outer loop
      vertex -30.4271 64.6468 -29
      vertex -45 14.5 -29
      vertex -44.4271 16.2634 -29
    endloop
  endfacet
  facet normal -1.22465e-16 0 1
    outer loop
      vertex -41.0729 17.3532 -29
      vertex -6.92705 65.7366 -29
      vertex -14.5729 65.7366 -29
    endloop
  endfacet
  facet normal -1.22465e-16 0 1
    outer loop
      vertex -27.0729 65.7366 -29
      vertex -28.5729 64.6468 -29
      vertex -42.9271 17.3532 -29
    endloop
  endfacet
  facet normal -1.22465e-16 0 1
    outer loop
      vertex -42.9271 17.3532 -29
      vertex -41.0729 17.3532 -29
      vertex -27.0729 65.7366 -29
    endloop
  endfacet
  facet normal -1.22465e-16 0 1
    outer loop
      vertex -17.9271 64.6468 -29
      vertex -27.0729 65.7366 -29
      vertex -41.0729 17.3532 -29
    endloop
  endfacet
  facet normal -1.22465e-16 0 1
    outer loop
      vertex -41.0729 17.3532 -29
      vertex -14.5729 65.7366 -29
      vertex -16.0729 64.6468 -29
    endloop
  endfacet
  facet normal -1.22465e-16 0 1
    outer loop
      vertex -39.5729 12.7366 -29
      vertex -2.07295 65.7366 -29
      vertex -39 14.5 -29
    endloop
  endfacet
  facet normal -1.22465e-16 0 1
    outer loop
      vertex -30.4271 64.6468 -29
      vertex -39.5729 65.7366 -29
      vertex -45 14.5 -29
    endloop
  endfacet
  facet normal -1.22465e-16 0 1
    outer loop
      vertex -39.5729 65.7366 -29
      vertex -41.0729 64.6468 -29
      vertex -45 14.5 -29
    endloop
  endfacet
  facet normal -1.22465e-16 0 1
    outer loop
      vertex -41.0729 64.6468 -29
      vertex -42.9271 64.6468 -29
      vertex -45 14.5 -29
    endloop
  endfacet
  facet normal -1.22465e-16 0 1
    outer loop
      vertex -42.9271 70.3532 -29
      vertex -41.0729 70.3532 -29
      vertex -46.5 76 -29
    endloop
  endfacet
  facet normal -1.22465e-16 0 1
    outer loop
      vertex -42.9271 64.6468 -29
      vertex -44.4271 65.7366 -29
      vertex -45 14.5 -29
    endloop
  endfacet
  facet normal -1.22465e-16 0 1
    outer loop
      vertex -44.4271 65.7366 -29
      vertex -45 67.5 -29
      vertex -45 14.5 -29
    endloop
  endfacet
  facet normal -1.22465e-16 0 1
    outer loop
      vertex -30.4271 64.6468 -29
      vertex -46.5 76 -29
      vertex -41.0729 70.3532 -29
    endloop
  endfacet
  facet normal -1.22465e-16 0 1
    outer loop
      vertex -30.4271 64.6468 -29
      vertex -41.0729 70.3532 -29
      vertex -39.5729 69.2634 -29
    endloop
  endfacet
  facet normal -1.22465e-16 0 1
    outer loop
      vertex -30.4271 64.6468 -29
      vertex -39 67.5 -29
      vertex -39.5729 65.7366 -29
    endloop
  endfacet
  facet normal -1.22465e-16 0 1
    outer loop
      vertex -30.4271 64.6468 -29
      vertex -39.5729 69.2634 -29
      vertex -39 67.5 -29
    endloop
  endfacet
  facet normal -1.22465e-16 0 1
    outer loop
      vertex -5.42705 11.6468 -29
      vertex -6.92705 12.7366 -29
      vertex -46.5 6 -29
    endloop
  endfacet
  facet normal -1.22465e-16 0 1
    outer loop
      vertex -41.0729 17.3532 -29
      vertex -16.0729 64.6468 -29
      vertex -17.9271 64.6468 -29
    endloop
  endfacet
  facet normal -1.22465e-16 0 1
    outer loop
      vertex -5.42705 64.6468 -29
      vertex -6.92705 65.7366 -29
      vertex -39.5729 16.2634 -29
    endloop
  endfacet
  facet normal -1.22465e-16 0 1
    outer loop
      vertex -27.0729 69.2634 -29
      vertex -26.5 67.5 -29
      vertex -17.9271 64.6468 -29
    endloop
  endfacet
  facet normal -1.22465e-16 0 1
    outer loop
      vertex -27.0729 69.2634 -29
      vertex -17.9271 64.6468 -29
      vertex -19.4271 65.7366 -29
    endloop
  endfacet
  facet normal -1.22465e-16 0 1
    outer loop
      vertex -19.4271 65.7366 -29
      vertex -20 67.5 -29
      vertex -27.0729 69.2634 -29
    endloop
  endfacet
  facet normal 0 -1 0
    outer loop
      vertex -46.5 76 -4
      vertex -46.5 76 -29
      vertex 3.55148e-15 76 -29
    endloop
  endfacet
  facet normal 0 -1 0
    outer loop
      vertex 4.89859e-16 76 -4
      vertex -46.5 76 -4
      vertex 3.55148e-15 76 -29
    endloop
  endfacet
  facet normal 1.22465e-16 0 -1
    outer loop
      vertex 4.89859e-16 74 -4
      vertex -46.5 74 -4
      vertex 4.89859e-16 76 -4
    endloop
  endfacet
  facet normal 1.22465e-16 0 -1
    outer loop
      vertex 4.89859e-16 76 -4
      vertex -46.5 74 -4
      vertex -46.5 76 -4
    endloop
  endfacet
  facet normal 0 -1 0
    outer loop
      vertex 4.89859e-16 74 -4
      vertex 0 74 0
      vertex -46.5 74 -5.69461e-15
    endloop
  endfacet
  facet normal 0 -1 0
    outer loop
      vertex -46.5 74 -4
      vertex 4.89859e-16 74 -4
      vertex -46.5 74 -5.69461e-15
    endloop
  endfacet
  facet normal -1.22465e-16 0 1
    outer loop
      vertex -46.5 74 -5.69461e-15
      vertex 0 74 0
      vertex 0 82 0
    endloop
  endfacet
  facet normal -1.22465e-16 0 1
    outer loop
      vertex -46.5 82 -5.69461e-15
      vertex -46.5 74 -5.69461e-15
      vertex 0 82 0
    endloop
  endfacet
  facet normal 0 1 0
    outer loop
      vertex 0 82 0
      vertex 3.55148e-15 82 -29
      vertex -46.5 82 -5.69461e-15
    endloop
  endfacet
  facet normal 0 1 0
    outer loop
      vertex -46.5 82 -5.69461e-15
      vertex 3.55148e-15 82 -29
      vertex -46.5 82 -29
    endloop
  endfacet
  facet normal -1.22465e-16 0 1
    outer loop
      vertex -4.78647 91.8817 -29
      vertex 3.55148e-15 82 -29
      vertex 3.55148e-15 97 -29
    endloop
  endfacet
  facet normal -1.22465e-16 0 1
    outer loop
      vertex -39.2865 90.1183 -29
      vertex -46.5 82 -29
      vertex 3.55148e-15 97 -29
    endloop
  endfacet
  facet normal -1.22465e-16 0 1
    outer loop
      vertex -6.46352 92.4266 -29
      vertex -4.78647 91.8817 -29
      vertex 3.55148e-15 97 -29
    endloop
  endfacet
  facet normal -1.22465e-16 0 1
    outer loop
      vertex -4.78647 90.1183 -29
      vertex 3.55148e-15 82 -29
      vertex -4.78647 91.8817 -29
    endloop
  endfacet
  facet normal -1.22465e-16 0 1
    outer loop
      vertex -6.46352 89.5734 -29
      vertex 3.55148e-15 82 -29
      vertex -4.78647 90.1183 -29
    endloop
  endfacet
  facet normal -1.22465e-16 0 1
    outer loop
      vertex -7.5 91 -29
      vertex -6.46352 92.4266 -29
      vertex -46.5 82 -29
    endloop
  endfacet
  facet normal -1.22465e-16 0 1
    outer loop
      vertex -46.5 82 -29
      vertex 3.55148e-15 82 -29
      vertex -6.46352 89.5734 -29
    endloop
  endfacet
  facet normal -1.22465e-16 0 1
    outer loop
      vertex -40.9635 89.5734 -29
      vertex -42 91 -29
      vertex -46.5 82 -29
    endloop
  endfacet
  facet normal -1.22465e-16 0 1
    outer loop
      vertex -46.5 82 -29
      vertex -6.46352 92.4266 -29
      vertex 3.55148e-15 97 -29
    endloop
  endfacet
  facet normal -1.22465e-16 0 1
    outer loop
      vertex -46.5 97 -29
      vertex -39.2865 91.8817 -29
      vertex 3.55148e-15 97 -29
    endloop
  endfacet
  facet normal -1.22465e-16 0 1
    outer loop
      vertex -39.2865 91.8817 -29
      vertex -39.2865 90.1183 -29
      vertex 3.55148e-15 97 -29
    endloop
  endfacet
  facet normal -1.22465e-16 0 1
    outer loop
      vertex -40.9635 89.5734 -29
      vertex -46.5 82 -29
      vertex -39.2865 90.1183 -29
    endloop
  endfacet
  facet normal -1.22465e-16 0 1
    outer loop
      vertex -46.5 97 -29
      vertex -46.5 82 -29
      vertex -42 91 -29
    endloop
  endfacet
  facet normal -1.22465e-16 0 1
    outer loop
      vertex -46.5 97 -29
      vertex -40.9635 92.4266 -29
      vertex -39.2865 91.8817 -29
    endloop
  endfacet
  facet normal -1.22465e-16 0 1
    outer loop
      vertex -46.5 97 -29
      vertex -42 91 -29
      vertex -40.9635 92.4266 -29
    endloop
  endfacet
  facet normal -1.22465e-16 0 1
    outer loop
      vertex -6.46352 89.5734 -29
      vertex -7.5 91 -29
      vertex -46.5 82 -29
    endloop
  endfacet
  facet normal 0 1 0
    outer loop
      vertex 3.55148e-15 97 -29
      vertex 4.28626e-15 97 -35
      vertex -46.5 97 -29
    endloop
  endfacet
  facet normal 0 1 0
    outer loop
      vertex -46.5 97 -29
      vertex 4.28626e-15 97 -35
      vertex -46.5 97 -35
    endloop
  endfacet
  facet normal 1.22465e-16 0 -1
    outer loop
      vertex -31.9271 16.2634 -35
      vertex -46.5 -15 -35
      vertex 4.28626e-15 97 -35
    endloop
  endfacet
  facet normal 1.22465e-16 0 -1
    outer loop
      vertex -45 14.5 -35
      vertex -46.5 -15 -35
      vertex -46.5 97 -35
    endloop
  endfacet
  facet normal 1.22465e-16 0 -1
    outer loop
      vertex -2.07295 65.7366 -35
      vertex -5.42705 17.3532 -35
      vertex -6.92705 16.2634 -35
    endloop
  endfacet
  facet normal 1.22465e-16 0 -1
    outer loop
      vertex 4.28626e-15 -15 -35
      vertex -2.07295 12.7366 -35
      vertex -1.5 14.5 -35
    endloop
  endfacet
  facet normal 1.22465e-16 0 -1
    outer loop
      vertex 4.28626e-15 -15 -35
      vertex -1.5 14.5 -35
      vertex 4.28626e-15 97 -35
    endloop
  endfacet
  facet normal 1.22465e-16 0 -1
    outer loop
      vertex -3.57295 11.6468 -35
      vertex -46.5 -15 -35
      vertex -5.42705 11.6468 -35
    endloop
  endfacet
  facet normal 1.22465e-16 0 -1
    outer loop
      vertex -39.2865 -8.11832 -35
      vertex -16.0729 11.6468 -35
      vertex -14.5729 12.7366 -35
    endloop
  endfacet
  facet normal 1.22465e-16 0 -1
    outer loop
      vertex -3.57295 70.3532 -35
      vertex 4.28626e-15 97 -35
      vertex -2.07295 69.2634 -35
    endloop
  endfacet
  facet normal 1.22465e-16 0 -1
    outer loop
      vertex -2.07295 16.2634 -35
      vertex -3.57295 17.3532 -35
      vertex 4.28626e-15 97 -35
    endloop
  endfacet
  facet normal 1.22465e-16 0 -1
    outer loop
      vertex -6.92705 12.7366 -35
      vertex -46.5 -15 -35
      vertex -39.2865 -9.88168 -35
    endloop
  endfacet
  facet normal 1.22465e-16 0 -1
    outer loop
      vertex -2.07295 69.2634 -35
      vertex 4.28626e-15 97 -35
      vertex -1.5 67.5 -35
    endloop
  endfacet
  facet normal 1.22465e-16 0 -1
    outer loop
      vertex -39.2865 -8.11832 -35
      vertex -17.9271 11.6468 -35
      vertex -16.0729 11.6468 -35
    endloop
  endfacet
  facet normal 1.22465e-16 0 -1
    outer loop
      vertex -5.42705 11.6468 -35
      vertex -46.5 -15 -35
      vertex -6.92705 12.7366 -35
    endloop
  endfacet
  facet normal 1.22465e-16 0 -1
    outer loop
      vertex -2.07295 65.7366 -35
      vertex -6.92705 16.2634 -35
      vertex -3.57295 64.6468 -35
    endloop
  endfacet
  facet normal 1.22465e-16 0 -1
    outer loop
      vertex -6.46352 -7.57341 -35
      vertex -46.5 -15 -35
      vertex -3.57295 11.6468 -35
    endloop
  endfacet
  facet normal 1.22465e-16 0 -1
    outer loop
      vertex 4.28626e-15 -15 -35
      vertex -3.57295 11.6468 -35
      vertex -2.07295 12.7366 -35
    endloop
  endfacet
  facet normal 1.22465e-16 0 -1
    outer loop
      vertex -3.57295 17.3532 -35
      vertex -5.42705 17.3532 -35
      vertex -2.07295 65.7366 -35
    endloop
  endfacet
  facet normal 1.22465e-16 0 -1
    outer loop
      vertex -3.57295 17.3532 -35
      vertex -2.07295 65.7366 -35
      vertex -1.5 67.5 -35
    endloop
  endfacet
  facet normal 1.22465e-16 0 -1
    outer loop
      vertex -3.57295 17.3532 -35
      vertex -1.5 67.5 -35
      vertex 4.28626e-15 97 -35
    endloop
  endfacet
  facet normal 1.22465e-16 0 -1
    outer loop
      vertex -3.57295 64.6468 -35
      vertex -6.92705 16.2634 -35
      vertex -5.42705 64.6468 -35
    endloop
  endfacet
  facet normal 1.22465e-16 0 -1
    outer loop
      vertex -31.9271 16.2634 -35
      vertex -6.92705 69.2634 -35
      vertex -7.5 67.5 -35
    endloop
  endfacet
  facet normal 1.22465e-16 0 -1
    outer loop
      vertex -3.57295 70.3532 -35
      vertex -5.42705 70.3532 -35
      vertex 4.28626e-15 97 -35
    endloop
  endfacet
  facet normal 1.22465e-16 0 -1
    outer loop
      vertex -5.42705 70.3532 -35
      vertex -6.92705 69.2634 -35
      vertex 4.28626e-15 97 -35
    endloop
  endfacet
  facet normal 1.22465e-16 0 -1
    outer loop
      vertex -41.0729 17.3532 -35
      vertex -32.5 67.5 -35
      vertex -31.9271 65.7366 -35
    endloop
  endfacet
  facet normal 1.22465e-16 0 -1
    outer loop
      vertex -39.2865 90.1183 -35
      vertex -19.4271 69.2634 -35
      vertex -20 67.5 -35
    endloop
  endfacet
  facet normal 1.22465e-16 0 -1
    outer loop
      vertex -31.9271 16.2634 -35
      vertex -7.5 67.5 -35
      vertex -6.92705 65.7366 -35
    endloop
  endfacet
  facet normal 1.22465e-16 0 -1
    outer loop
      vertex -7.5 -9 -35
      vertex -46.5 -15 -35
      vertex -6.46352 -7.57341 -35
    endloop
  endfacet
  facet normal 1.22465e-16 0 -1
    outer loop
      vertex -32.5 14.5 -35
      vertex -46.5 -15 -35
      vertex -31.9271 16.2634 -35
    endloop
  endfacet
  facet normal 1.22465e-16 0 -1
    outer loop
      vertex -7.5 91 -35
      vertex -46.5 97 -35
      vertex -6.46352 92.4266 -35
    endloop
  endfacet
  facet normal 1.22465e-16 0 -1
    outer loop
      vertex 4.28626e-15 -15 -35
      vertex -4.78647 -9.88168 -35
      vertex -3.57295 11.6468 -35
    endloop
  endfacet
  facet normal 1.22465e-16 0 -1
    outer loop
      vertex -6.46352 -10.4266 -35
      vertex -46.5 -15 -35
      vertex -7.5 -9 -35
    endloop
  endfacet
  facet normal 1.22465e-16 0 -1
    outer loop
      vertex -4.78647 -9.88168 -35
      vertex -4.78647 -8.11832 -35
      vertex -3.57295 11.6468 -35
    endloop
  endfacet
  facet normal 1.22465e-16 0 -1
    outer loop
      vertex -4.78647 -8.11832 -35
      vertex -6.46352 -7.57341 -35
      vertex -3.57295 11.6468 -35
    endloop
  endfacet
  facet normal 1.22465e-16 0 -1
    outer loop
      vertex 4.28626e-15 -15 -35
      vertex -46.5 -15 -35
      vertex -6.46352 -10.4266 -35
    endloop
  endfacet
  facet normal 1.22465e-16 0 -1
    outer loop
      vertex 4.28626e-15 -15 -35
      vertex -6.46352 -10.4266 -35
      vertex -4.78647 -9.88168 -35
    endloop
  endfacet
  facet normal 1.22465e-16 0 -1
    outer loop
      vertex 4.28626e-15 97 -35
      vertex -46.5 -15 -35
      vertex -4.78647 90.1183 -35
    endloop
  endfacet
  facet normal 1.22465e-16 0 -1
    outer loop
      vertex 4.28626e-15 97 -35
      vertex -4.78647 90.1183 -35
      vertex -4.78647 91.8817 -35
    endloop
  endfacet
  facet normal 1.22465e-16 0 -1
    outer loop
      vertex 4.28626e-15 97 -35
      vertex -4.78647 91.8817 -35
      vertex -6.46352 92.4266 -35
    endloop
  endfacet
  facet normal 1.22465e-16 0 -1
    outer loop
      vertex 4.28626e-15 97 -35
      vertex -6.46352 92.4266 -35
      vertex -46.5 97 -35
    endloop
  endfacet
  facet normal 1.22465e-16 0 -1
    outer loop
      vertex -6.46352 89.5734 -35
      vertex -46.5 97 -35
      vertex -7.5 91 -35
    endloop
  endfacet
  facet normal 1.22465e-16 0 -1
    outer loop
      vertex -14.5729 16.2634 -35
      vertex -5.42705 64.6468 -35
      vertex -14 14.5 -35
    endloop
  endfacet
  facet normal 1.22465e-16 0 -1
    outer loop
      vertex -39.2865 90.1183 -35
      vertex -20 67.5 -35
      vertex -40.9635 89.5734 -35
    endloop
  endfacet
  facet normal 1.22465e-16 0 -1
    outer loop
      vertex -6.92705 16.2634 -35
      vertex -14.5729 12.7366 -35
      vertex -14 14.5 -35
    endloop
  endfacet
  facet normal 1.22465e-16 0 -1
    outer loop
      vertex -6.92705 16.2634 -35
      vertex -14 14.5 -35
      vertex -5.42705 64.6468 -35
    endloop
  endfacet
  facet normal 1.22465e-16 0 -1
    outer loop
      vertex -14.5729 16.2634 -35
      vertex -16.0729 17.3532 -35
      vertex -5.42705 64.6468 -35
    endloop
  endfacet
  facet normal 1.22465e-16 0 -1
    outer loop
      vertex -16.0729 17.3532 -35
      vertex -17.9271 17.3532 -35
      vertex -5.42705 64.6468 -35
    endloop
  endfacet
  facet normal 1.22465e-16 0 -1
    outer loop
      vertex -17.9271 17.3532 -35
      vertex -19.4271 16.2634 -35
      vertex -5.42705 64.6468 -35
    endloop
  endfacet
  facet normal 1.22465e-16 0 -1
    outer loop
      vertex -17.9271 11.6468 -35
      vertex -39.2865 -8.11832 -35
      vertex -19.4271 12.7366 -35
    endloop
  endfacet
  facet normal 1.22465e-16 0 -1
    outer loop
      vertex -40.9635 -7.57341 -35
      vertex -20 14.5 -35
      vertex -19.4271 12.7366 -35
    endloop
  endfacet
  facet normal 1.22465e-16 0 -1
    outer loop
      vertex -40.9635 -7.57341 -35
      vertex -19.4271 12.7366 -35
      vertex -39.2865 -8.11832 -35
    endloop
  endfacet
  facet normal 1.22465e-16 0 -1
    outer loop
      vertex -4.78647 90.1183 -35
      vertex -46.5 -15 -35
      vertex -14.5729 65.7366 -35
    endloop
  endfacet
  facet normal 1.22465e-16 0 -1
    outer loop
      vertex -4.78647 90.1183 -35
      vertex -14.5729 65.7366 -35
      vertex -6.46352 89.5734 -35
    endloop
  endfacet
  facet normal 1.22465e-16 0 -1
    outer loop
      vertex -14.5729 69.2634 -35
      vertex -6.46352 89.5734 -35
      vertex -14 67.5 -35
    endloop
  endfacet
  facet normal 1.22465e-16 0 -1
    outer loop
      vertex -14.5729 65.7366 -35
      vertex -14 67.5 -35
      vertex -6.46352 89.5734 -35
    endloop
  endfacet
  facet normal 1.22465e-16 0 -1
    outer loop
      vertex -27.0729 12.7366 -35
      vertex -46.5 -15 -35
      vertex -28.5729 11.6468 -35
    endloop
  endfacet
  facet normal 1.22465e-16 0 -1
    outer loop
      vertex -16.0729 64.6468 -35
      vertex -46.5 -15 -35
      vertex -17.9271 64.6468 -35
    endloop
  endfacet
  facet normal 1.22465e-16 0 -1
    outer loop
      vertex -17.9271 64.6468 -35
      vertex -46.5 -15 -35
      vertex -19.4271 65.7366 -35
    endloop
  endfacet
  facet normal 1.22465e-16 0 -1
    outer loop
      vertex -39.2865 91.8817 -35
      vertex -14.5729 69.2634 -35
      vertex -16.0729 70.3532 -35
    endloop
  endfacet
  facet normal 1.22465e-16 0 -1
    outer loop
      vertex -39.2865 91.8817 -35
      vertex -16.0729 70.3532 -35
      vertex -17.9271 70.3532 -35
    endloop
  endfacet
  facet normal 1.22465e-16 0 -1
    outer loop
      vertex -19.4271 65.7366 -35
      vertex -46.5 -15 -35
      vertex -20 67.5 -35
    endloop
  endfacet
  facet normal 1.22465e-16 0 -1
    outer loop
      vertex -40.9635 -7.57341 -35
      vertex -46.5 -15 -35
      vertex -27.0729 12.7366 -35
    endloop
  endfacet
  facet normal 1.22465e-16 0 -1
    outer loop
      vertex -19.4271 16.2634 -35
      vertex -27.0729 12.7366 -35
      vertex -5.42705 64.6468 -35
    endloop
  endfacet
  facet normal 1.22465e-16 0 -1
    outer loop
      vertex -30.4271 17.3532 -35
      vertex -5.42705 64.6468 -35
      vertex -28.5729 17.3532 -35
    endloop
  endfacet
  facet normal 1.22465e-16 0 -1
    outer loop
      vertex -27.0729 12.7366 -35
      vertex -26.5 14.5 -35
      vertex -5.42705 64.6468 -35
    endloop
  endfacet
  facet normal 1.22465e-16 0 -1
    outer loop
      vertex -28.5729 70.3532 -35
      vertex -46.5 97 -35
      vertex -27.0729 69.2634 -35
    endloop
  endfacet
  facet normal 1.22465e-16 0 -1
    outer loop
      vertex -26.5 14.5 -35
      vertex -27.0729 16.2634 -35
      vertex -5.42705 64.6468 -35
    endloop
  endfacet
  facet normal 1.22465e-16 0 -1
    outer loop
      vertex -28.5729 11.6468 -35
      vertex -46.5 -15 -35
      vertex -30.4271 11.6468 -35
    endloop
  endfacet
  facet normal 1.22465e-16 0 -1
    outer loop
      vertex -27.0729 16.2634 -35
      vertex -28.5729 17.3532 -35
      vertex -5.42705 64.6468 -35
    endloop
  endfacet
  facet normal 1.22465e-16 0 -1
    outer loop
      vertex -31.9271 12.7366 -35
      vertex -46.5 -15 -35
      vertex -32.5 14.5 -35
    endloop
  endfacet
  facet normal 1.22465e-16 0 -1
    outer loop
      vertex -6.92705 69.2634 -35
      vertex -31.9271 16.2634 -35
      vertex 4.28626e-15 97 -35
    endloop
  endfacet
  facet normal 1.22465e-16 0 -1
    outer loop
      vertex -5.42705 64.6468 -35
      vertex -30.4271 17.3532 -35
      vertex -6.92705 65.7366 -35
    endloop
  endfacet
  facet normal 1.22465e-16 0 -1
    outer loop
      vertex -31.9271 16.2634 -35
      vertex -6.92705 65.7366 -35
      vertex -30.4271 17.3532 -35
    endloop
  endfacet
  facet normal 1.22465e-16 0 -1
    outer loop
      vertex -30.4271 11.6468 -35
      vertex -46.5 -15 -35
      vertex -31.9271 12.7366 -35
    endloop
  endfacet
  facet normal 1.22465e-16 0 -1
    outer loop
      vertex -39.5729 16.2634 -35
      vertex -27.0729 65.7366 -35
      vertex -39 14.5 -35
    endloop
  endfacet
  facet normal 1.22465e-16 0 -1
    outer loop
      vertex -20 67.5 -35
      vertex -27.0729 65.7366 -35
      vertex -26.5 67.5 -35
    endloop
  endfacet
  facet normal 1.22465e-16 0 -1
    outer loop
      vertex -20 67.5 -35
      vertex -26.5 67.5 -35
      vertex -27.0729 69.2634 -35
    endloop
  endfacet
  facet normal 1.22465e-16 0 -1
    outer loop
      vertex -42 91 -35
      vertex -27.0729 69.2634 -35
      vertex -46.5 97 -35
    endloop
  endfacet
  facet normal 1.22465e-16 0 -1
    outer loop
      vertex -30.4271 70.3532 -35
      vertex -46.5 97 -35
      vertex -28.5729 70.3532 -35
    endloop
  endfacet
  facet normal 1.22465e-16 0 -1
    outer loop
      vertex -39.5729 12.7366 -35
      vertex -46.5 -15 -35
      vertex -41.0729 11.6468 -35
    endloop
  endfacet
  facet normal 1.22465e-16 0 -1
    outer loop
      vertex -30.4271 70.3532 -35
      vertex -31.9271 69.2634 -35
      vertex -46.5 97 -35
    endloop
  endfacet
  facet normal 1.22465e-16 0 -1
    outer loop
      vertex -31.9271 69.2634 -35
      vertex -32.5 67.5 -35
      vertex -46.5 97 -35
    endloop
  endfacet
  facet normal 1.22465e-16 0 -1
    outer loop
      vertex -39.5729 16.2634 -35
      vertex -28.5729 64.6468 -35
      vertex -27.0729 65.7366 -35
    endloop
  endfacet
  facet normal 1.22465e-16 0 -1
    outer loop
      vertex -39.2865 -8.11832 -35
      vertex -6.92705 16.2634 -35
      vertex -7.5 14.5 -35
    endloop
  endfacet
  facet normal 1.22465e-16 0 -1
    outer loop
      vertex -20 67.5 -35
      vertex -46.5 -15 -35
      vertex -39.5729 12.7366 -35
    endloop
  endfacet
  facet normal 1.22465e-16 0 -1
    outer loop
      vertex -41.0729 17.3532 -35
      vertex -31.9271 65.7366 -35
      vertex -30.4271 64.6468 -35
    endloop
  endfacet
  facet normal 1.22465e-16 0 -1
    outer loop
      vertex -20 67.5 -35
      vertex -39.5729 12.7366 -35
      vertex -39 14.5 -35
    endloop
  endfacet
  facet normal 1.22465e-16 0 -1
    outer loop
      vertex -20 67.5 -35
      vertex -39 14.5 -35
      vertex -27.0729 65.7366 -35
    endloop
  endfacet
  facet normal 1.22465e-16 0 -1
    outer loop
      vertex -41.0729 17.3532 -35
      vertex -30.4271 64.6468 -35
      vertex -39.5729 16.2634 -35
    endloop
  endfacet
  facet normal 1.22465e-16 0 -1
    outer loop
      vertex -28.5729 64.6468 -35
      vertex -39.5729 16.2634 -35
      vertex -30.4271 64.6468 -35
    endloop
  endfacet
  facet normal 1.22465e-16 0 -1
    outer loop
      vertex -44.4271 12.7366 -35
      vertex -46.5 -15 -35
      vertex -45 14.5 -35
    endloop
  endfacet
  facet normal 1.22465e-16 0 -1
    outer loop
      vertex -41.0729 11.6468 -35
      vertex -46.5 -15 -35
      vertex -42.9271 11.6468 -35
    endloop
  endfacet
  facet normal 1.22465e-16 0 -1
    outer loop
      vertex -45 67.5 -35
      vertex -42.9271 17.3532 -35
      vertex -46.5 97 -35
    endloop
  endfacet
  facet normal 1.22465e-16 0 -1
    outer loop
      vertex -42.9271 11.6468 -35
      vertex -46.5 -15 -35
      vertex -44.4271 12.7366 -35
    endloop
  endfacet
  facet normal 1.22465e-16 0 -1
    outer loop
      vertex -42.9271 17.3532 -35
      vertex -44.4271 16.2634 -35
      vertex -46.5 97 -35
    endloop
  endfacet
  facet normal 1.22465e-16 0 -1
    outer loop
      vertex -44.4271 16.2634 -35
      vertex -45 14.5 -35
      vertex -46.5 97 -35
    endloop
  endfacet
  facet normal 1.22465e-16 0 -1
    outer loop
      vertex -41.0729 70.3532 -35
      vertex -46.5 97 -35
      vertex -39.5729 69.2634 -35
    endloop
  endfacet
  facet normal 1.22465e-16 0 -1
    outer loop
      vertex -39.2865 -8.11832 -35
      vertex -7.5 14.5 -35
      vertex -39.2865 -9.88168 -35
    endloop
  endfacet
  facet normal 1.22465e-16 0 -1
    outer loop
      vertex -32.5 67.5 -35
      vertex -41.0729 17.3532 -35
      vertex -39.5729 65.7366 -35
    endloop
  endfacet
  facet normal 1.22465e-16 0 -1
    outer loop
      vertex -32.5 67.5 -35
      vertex -39.5729 65.7366 -35
      vertex -39 67.5 -35
    endloop
  endfacet
  facet normal 1.22465e-16 0 -1
    outer loop
      vertex -32.5 67.5 -35
      vertex -39 67.5 -35
      vertex -46.5 97 -35
    endloop
  endfacet
  facet normal 1.22465e-16 0 -1
    outer loop
      vertex -39 67.5 -35
      vertex -39.5729 69.2634 -35
      vertex -46.5 97 -35
    endloop
  endfacet
  facet normal 1.22465e-16 0 -1
    outer loop
      vertex -45 67.5 -35
      vertex -46.5 97 -35
      vertex -44.4271 69.2634 -35
    endloop
  endfacet
  facet normal 1.22465e-16 0 -1
    outer loop
      vertex -39.2865 -9.88168 -35
      vertex -46.5 -15 -35
      vertex -40.9635 -10.4266 -35
    endloop
  endfacet
  facet normal 1.22465e-16 0 -1
    outer loop
      vertex -41.0729 70.3532 -35
      vertex -42.9271 70.3532 -35
      vertex -46.5 97 -35
    endloop
  endfacet
  facet normal 1.22465e-16 0 -1
    outer loop
      vertex -41.0729 64.6468 -35
      vertex -41.0729 17.3532 -35
      vertex -42.9271 64.6468 -35
    endloop
  endfacet
  facet normal 1.22465e-16 0 -1
    outer loop
      vertex -42.9271 70.3532 -35
      vertex -44.4271 69.2634 -35
      vertex -46.5 97 -35
    endloop
  endfacet
  facet normal 1.22465e-16 0 -1
    outer loop
      vertex -41.0729 17.3532 -35
      vertex -42.9271 17.3532 -35
      vertex -45 67.5 -35
    endloop
  endfacet
  facet normal 1.22465e-16 0 -1
    outer loop
      vertex -42.9271 64.6468 -35
      vertex -41.0729 17.3532 -35
      vertex -44.4271 65.7366 -35
    endloop
  endfacet
  facet normal 1.22465e-16 0 -1
    outer loop
      vertex -41.0729 17.3532 -35
      vertex -45 67.5 -35
      vertex -44.4271 65.7366 -35
    endloop
  endfacet
  facet normal 1.22465e-16 0 -1
    outer loop
      vertex -39.5729 65.7366 -35
      vertex -41.0729 17.3532 -35
      vertex -41.0729 64.6468 -35
    endloop
  endfacet
  facet normal 1.22465e-16 0 -1
    outer loop
      vertex -40.9635 -7.57341 -35
      vertex -19.4271 16.2634 -35
      vertex -20 14.5 -35
    endloop
  endfacet
  facet normal 1.22465e-16 0 -1
    outer loop
      vertex -14.5729 65.7366 -35
      vertex -46.5 -15 -35
      vertex -16.0729 64.6468 -35
    endloop
  endfacet
  facet normal 1.22465e-16 0 -1
    outer loop
      vertex -42 -9 -35
      vertex -46.5 -15 -35
      vertex -40.9635 -7.57341 -35
    endloop
  endfacet
  facet normal 1.22465e-16 0 -1
    outer loop
      vertex -19.4271 16.2634 -35
      vertex -40.9635 -7.57341 -35
      vertex -27.0729 12.7366 -35
    endloop
  endfacet
  facet normal 1.22465e-16 0 -1
    outer loop
      vertex -40.9635 -10.4266 -35
      vertex -46.5 -15 -35
      vertex -42 -9 -35
    endloop
  endfacet
  facet normal 1.22465e-16 0 -1
    outer loop
      vertex -39.2865 -8.11832 -35
      vertex -14.5729 12.7366 -35
      vertex -6.92705 16.2634 -35
    endloop
  endfacet
  facet normal 1.22465e-16 0 -1
    outer loop
      vertex -17.9271 70.3532 -35
      vertex -19.4271 69.2634 -35
      vertex -39.2865 90.1183 -35
    endloop
  endfacet
  facet normal 1.22465e-16 0 -1
    outer loop
      vertex -6.46352 89.5734 -35
      vertex -14.5729 69.2634 -35
      vertex -39.2865 91.8817 -35
    endloop
  endfacet
  facet normal 1.22465e-16 0 -1
    outer loop
      vertex -6.46352 89.5734 -35
      vertex -39.2865 91.8817 -35
      vertex -46.5 97 -35
    endloop
  endfacet
  facet normal 1.22465e-16 0 -1
    outer loop
      vertex -42 91 -35
      vertex -46.5 97 -35
      vertex -40.9635 92.4266 -35
    endloop
  endfacet
  facet normal 1.22465e-16 0 -1
    outer loop
      vertex -39.2865 91.8817 -35
      vertex -40.9635 92.4266 -35
      vertex -46.5 97 -35
    endloop
  endfacet
  facet normal 1.22465e-16 0 -1
    outer loop
      vertex -40.9635 89.5734 -35
      vertex -27.0729 69.2634 -35
      vertex -42 91 -35
    endloop
  endfacet
  facet normal 1.22465e-16 0 -1
    outer loop
      vertex -39.2865 91.8817 -35
      vertex -17.9271 70.3532 -35
      vertex -39.2865 90.1183 -35
    endloop
  endfacet
  facet normal 1.22465e-16 0 -1
    outer loop
      vertex -20 67.5 -35
      vertex -27.0729 69.2634 -35
      vertex -40.9635 89.5734 -35
    endloop
  endfacet
  facet normal 1.22465e-16 0 -1
    outer loop
      vertex -2.07295 16.2634 -35
      vertex 4.28626e-15 97 -35
      vertex -1.5 14.5 -35
    endloop
  endfacet
  facet normal 1.22465e-16 0 -1
    outer loop
      vertex -6.92705 12.7366 -35
      vertex -39.2865 -9.88168 -35
      vertex -7.5 14.5 -35
    endloop
  endfacet
  facet normal -1 0 -1.22465e-16
    outer loop
      vertex -46.5 -15 -29
      vertex -46.5 0 -29
      vertex -46.5 -15 -35
    endloop
  endfacet
  facet normal -1 0 -1.22465e-16
    outer loop
      vertex -46.5 6 -4
      vertex -46.5 0 -29
      vertex -46.5 0 -5.69461e-15
    endloop
  endfacet
  facet normal -1 0 -1.22465e-16
    outer loop
      vertex -46.5 74 -5.69461e-15
      vertex -46.5 76 -4
      vertex -46.5 74 -4
    endloop
  endfacet
  facet normal -1 0 -1.22465e-16
    outer loop
      vertex -46.5 6 -29
      vertex -46.5 0 -29
      vertex -46.5 6 -4
    endloop
  endfacet
  facet normal -1 0 -1.22465e-16
    outer loop
      vertex -46.5 8 -5.69461e-15
      vertex -46.5 6 -4
      vertex -46.5 0 -5.69461e-15
    endloop
  endfacet
  facet normal -1 0 -1.22465e-16
    outer loop
      vertex -46.5 -15 -35
      vertex -46.5 0 -29
      vertex -46.5 6 -29
    endloop
  endfacet
  facet normal -1 0 -1.22465e-16
    outer loop
      vertex -46.5 -15 -35
      vertex -46.5 6 -29
      vertex -46.5 76 -29
    endloop
  endfacet
  facet normal -1 0 -1.22465e-16
    outer loop
      vertex -46.5 76 -4
      vertex -46.5 74 -5.69461e-15
      vertex -46.5 82 -5.69461e-15
    endloop
  endfacet
  facet normal -1 0 -1.22465e-16
    outer loop
      vertex -46.5 76 -4
      vertex -46.5 82 -5.69461e-15
      vertex -46.5 76 -29
    endloop
  endfacet
  facet normal -1 0 -1.22465e-16
    outer loop
      vertex -46.5 76 -29
      vertex -46.5 82 -5.69461e-15
      vertex -46.5 82 -29
    endloop
  endfacet
  facet normal -1 0 -1.22465e-16
    outer loop
      vertex -46.5 76 -29
      vertex -46.5 82 -29
      vertex -46.5 -15 -35
    endloop
  endfacet
  facet normal -1 0 -1.22465e-16
    outer loop
      vertex -46.5 82 -29
      vertex -46.5 97 -29
      vertex -46.5 -15 -35
    endloop
  endfacet
  facet normal -1 0 -1.22465e-16
    outer loop
      vertex -46.5 -15 -35
      vertex -46.5 97 -29
      vertex -46.5 97 -35
    endloop
  endfacet
  facet normal -1 0 -1.22465e-16
    outer loop
      vertex -46.5 6 -4
      vertex -46.5 8 -5.69461e-15
      vertex -46.5 8 -4
    endloop
  endfacet
  facet normal -0.309017 -0.951056 -3.78437e-17
    outer loop
      vertex -6.46352 -7.57341 -29
      vertex -6.46352 -7.57341 -35
      vertex -4.78647 -8.11832 -35
    endloop
  endfacet
  facet normal -0.309017 -0.951056 -3.78437e-17
    outer loop
      vertex -4.78647 -8.11832 -29
      vertex -6.46352 -7.57341 -29
      vertex -4.78647 -8.11832 -35
    endloop
  endfacet
  facet normal -1 0 -1.22465e-16
    outer loop
      vertex -4.78647 -8.11832 -35
      vertex -4.78647 -9.88168 -35
      vertex -4.78647 -8.11832 -29
    endloop
  endfacet
  facet normal -1 0 -1.22465e-16
    outer loop
      vertex -4.78647 -8.11832 -29
      vertex -4.78647 -9.88168 -35
      vertex -4.78647 -9.88168 -29
    endloop
  endfacet
  facet normal 0.809017 -0.587785 9.9076e-17
    outer loop
      vertex -7.5 -9 -29
      vertex -7.5 -9 -35
      vertex -6.46352 -7.57341 -35
    endloop
  endfacet
  facet normal 0.809017 -0.587785 9.9076e-17
    outer loop
      vertex -6.46352 -7.57341 -29
      vertex -7.5 -9 -29
      vertex -6.46352 -7.57341 -35
    endloop
  endfacet
  facet normal 0.809017 0.587785 9.9076e-17
    outer loop
      vertex -6.46352 -10.4266 -35
      vertex -7.5 -9 -35
      vertex -7.5 -9 -29
    endloop
  endfacet
  facet normal 0.809017 0.587785 9.9076e-17
    outer loop
      vertex -6.46352 -10.4266 -29
      vertex -6.46352 -10.4266 -35
      vertex -7.5 -9 -29
    endloop
  endfacet
  facet normal -0.309017 0.951056 -3.78437e-17
    outer loop
      vertex -6.46352 -10.4266 -35
      vertex -6.46352 -10.4266 -29
      vertex -4.78647 -9.88168 -35
    endloop
  endfacet
  facet normal -0.309017 0.951056 -3.78437e-17
    outer loop
      vertex -4.78647 -9.88168 -35
      vertex -6.46352 -10.4266 -29
      vertex -4.78647 -9.88168 -29
    endloop
  endfacet
  facet normal -0.309017 -0.951056 -3.78437e-17
    outer loop
      vertex -40.9635 -7.57341 -29
      vertex -40.9635 -7.57341 -35
      vertex -39.2865 -8.11832 -35
    endloop
  endfacet
  facet normal -0.309017 -0.951056 -3.78437e-17
    outer loop
      vertex -39.2865 -8.11832 -29
      vertex -40.9635 -7.57341 -29
      vertex -39.2865 -8.11832 -35
    endloop
  endfacet
  facet normal -1 0 -1.22465e-16
    outer loop
      vertex -39.2865 -8.11832 -35
      vertex -39.2865 -9.88168 -35
      vertex -39.2865 -8.11832 -29
    endloop
  endfacet
  facet normal -1 0 -1.22465e-16
    outer loop
      vertex -39.2865 -8.11832 -29
      vertex -39.2865 -9.88168 -35
      vertex -39.2865 -9.88168 -29
    endloop
  endfacet
  facet normal 0.809017 -0.587785 9.9076e-17
    outer loop
      vertex -42 -9 -29
      vertex -42 -9 -35
      vertex -40.9635 -7.57341 -35
    endloop
  endfacet
  facet normal 0.809017 -0.587785 9.9076e-17
    outer loop
      vertex -40.9635 -7.57341 -29
      vertex -42 -9 -29
      vertex -40.9635 -7.57341 -35
    endloop
  endfacet
  facet normal 0.809017 0.587785 9.9076e-17
    outer loop
      vertex -40.9635 -10.4266 -35
      vertex -42 -9 -35
      vertex -42 -9 -29
    endloop
  endfacet
  facet normal 0.809017 0.587785 9.9076e-17
    outer loop
      vertex -40.9635 -10.4266 -29
      vertex -40.9635 -10.4266 -35
      vertex -42 -9 -29
    endloop
  endfacet
  facet normal -0.309017 0.951056 -3.78437e-17
    outer loop
      vertex -40.9635 -10.4266 -35
      vertex -40.9635 -10.4266 -29
      vertex -39.2865 -9.88168 -35
    endloop
  endfacet
  facet normal -0.309017 0.951056 -3.78437e-17
    outer loop
      vertex -39.2865 -9.88168 -35
      vertex -40.9635 -10.4266 -29
      vertex -39.2865 -9.88168 -29
    endloop
  endfacet
  facet normal -0.587785 0.809017 -7.19829e-17
    outer loop
      vertex -3.57295 11.6468 -35
      vertex -3.57295 11.6468 -29
      vertex -2.07295 12.7366 -35
    endloop
  endfacet
  facet normal -0.587785 0.809017 -7.19829e-17
    outer loop
      vertex -2.07295 12.7366 -35
      vertex -3.57295 11.6468 -29
      vertex -2.07295 12.7366 -29
    endloop
  endfacet
  facet normal -0.951057 0.309017 -1.16471e-16
    outer loop
      vertex -2.07295 12.7366 -35
      vertex -2.07295 12.7366 -29
      vertex -1.5 14.5 -35
    endloop
  endfacet
  facet normal -0.951057 0.309017 -1.16471e-16
    outer loop
      vertex -1.5 14.5 -35
      vertex -2.07295 12.7366 -29
      vertex -1.5 14.5 -29
    endloop
  endfacet
  facet normal -0.951057 -0.309017 -1.16471e-16
    outer loop
      vertex -2.07295 16.2634 -35
      vertex -1.5 14.5 -35
      vertex -2.07295 16.2634 -29
    endloop
  endfacet
  facet normal -0.951057 -0.309017 -1.16471e-16
    outer loop
      vertex -2.07295 16.2634 -29
      vertex -1.5 14.5 -35
      vertex -1.5 14.5 -29
    endloop
  endfacet
  facet normal -0.587785 -0.809017 -7.19829e-17
    outer loop
      vertex -3.57295 17.3532 -29
      vertex -3.57295 17.3532 -35
      vertex -2.07295 16.2634 -35
    endloop
  endfacet
  facet normal -0.587785 -0.809017 -7.19829e-17
    outer loop
      vertex -2.07295 16.2634 -29
      vertex -3.57295 17.3532 -29
      vertex -2.07295 16.2634 -35
    endloop
  endfacet
  facet normal 0 -1 0
    outer loop
      vertex -5.42705 17.3532 -29
      vertex -5.42705 17.3532 -35
      vertex -3.57295 17.3532 -35
    endloop
  endfacet
  facet normal 0 -1 0
    outer loop
      vertex -3.57295 17.3532 -29
      vertex -5.42705 17.3532 -29
      vertex -3.57295 17.3532 -35
    endloop
  endfacet
  facet normal 0.587785 -0.809017 7.19829e-17
    outer loop
      vertex -6.92705 16.2634 -29
      vertex -6.92705 16.2634 -35
      vertex -5.42705 17.3532 -35
    endloop
  endfacet
  facet normal 0.587785 -0.809017 7.19829e-17
    outer loop
      vertex -5.42705 17.3532 -29
      vertex -6.92705 16.2634 -29
      vertex -5.42705 17.3532 -35
    endloop
  endfacet
  facet normal 0.951057 -0.309017 1.16471e-16
    outer loop
      vertex -7.5 14.5 -29
      vertex -7.5 14.5 -35
      vertex -6.92705 16.2634 -35
    endloop
  endfacet
  facet normal 0.951057 -0.309017 1.16471e-16
    outer loop
      vertex -6.92705 16.2634 -29
      vertex -7.5 14.5 -29
      vertex -6.92705 16.2634 -35
    endloop
  endfacet
  facet normal 0.951057 0.309017 1.16471e-16
    outer loop
      vertex -6.92705 12.7366 -35
      vertex -7.5 14.5 -35
      vertex -7.5 14.5 -29
    endloop
  endfacet
  facet normal 0.951057 0.309017 1.16471e-16
    outer loop
      vertex -6.92705 12.7366 -29
      vertex -6.92705 12.7366 -35
      vertex -7.5 14.5 -29
    endloop
  endfacet
  facet normal 0.587785 0.809017 7.19829e-17
    outer loop
      vertex -6.92705 12.7366 -35
      vertex -6.92705 12.7366 -29
      vertex -5.42705 11.6468 -35
    endloop
  endfacet
  facet normal 0.587785 0.809017 7.19829e-17
    outer loop
      vertex -5.42705 11.6468 -35
      vertex -6.92705 12.7366 -29
      vertex -5.42705 11.6468 -29
    endloop
  endfacet
  facet normal 0 1 0
    outer loop
      vertex -5.42705 11.6468 -35
      vertex -5.42705 11.6468 -29
      vertex -3.57295 11.6468 -35
    endloop
  endfacet
  facet normal 0 1 0
    outer loop
      vertex -3.57295 11.6468 -35
      vertex -5.42705 11.6468 -29
      vertex -3.57295 11.6468 -29
    endloop
  endfacet
  facet normal -0.951057 0.309017 -1.16471e-16
    outer loop
      vertex -2.07295 65.7366 -35
      vertex -2.07295 65.7366 -29
      vertex -1.5 67.5 -35
    endloop
  endfacet
  facet normal -0.951057 0.309017 -1.16471e-16
    outer loop
      vertex -1.5 67.5 -35
      vertex -2.07295 65.7366 -29
      vertex -1.5 67.5 -29
    endloop
  endfacet
  facet normal -0.587785 0.809017 -7.19829e-17
    outer loop
      vertex -3.57295 64.6468 -35
      vertex -3.57295 64.6468 -29
      vertex -2.07295 65.7366 -35
    endloop
  endfacet
  facet normal -0.587785 0.809017 -7.19829e-17
    outer loop
      vertex -2.07295 65.7366 -35
      vertex -3.57295 64.6468 -29
      vertex -2.07295 65.7366 -29
    endloop
  endfacet
  facet normal -0.951057 -0.309017 -1.16471e-16
    outer loop
      vertex -2.07295 69.2634 -35
      vertex -1.5 67.5 -35
      vertex -2.07295 69.2634 -29
    endloop
  endfacet
  facet normal -0.951057 -0.309017 -1.16471e-16
    outer loop
      vertex -2.07295 69.2634 -29
      vertex -1.5 67.5 -35
      vertex -1.5 67.5 -29
    endloop
  endfacet
  facet normal -0.587785 -0.809017 -7.19829e-17
    outer loop
      vertex -3.57295 70.3532 -29
      vertex -3.57295 70.3532 -35
      vertex -2.07295 69.2634 -35
    endloop
  endfacet
  facet normal -0.587785 -0.809017 -7.19829e-17
    outer loop
      vertex -2.07295 69.2634 -29
      vertex -3.57295 70.3532 -29
      vertex -2.07295 69.2634 -35
    endloop
  endfacet
  facet normal 0 -1 0
    outer loop
      vertex -5.42705 70.3532 -29
      vertex -5.42705 70.3532 -35
      vertex -3.57295 70.3532 -35
    endloop
  endfacet
  facet normal 0 -1 0
    outer loop
      vertex -3.57295 70.3532 -29
      vertex -5.42705 70.3532 -29
      vertex -3.57295 70.3532 -35
    endloop
  endfacet
  facet normal 0.587785 -0.809017 7.19829e-17
    outer loop
      vertex -6.92705 69.2634 -29
      vertex -6.92705 69.2634 -35
      vertex -5.42705 70.3532 -35
    endloop
  endfacet
  facet normal 0.587785 -0.809017 7.19829e-17
    outer loop
      vertex -5.42705 70.3532 -29
      vertex -6.92705 69.2634 -29
      vertex -5.42705 70.3532 -35
    endloop
  endfacet
  facet normal 0.951057 -0.309017 1.16471e-16
    outer loop
      vertex -7.5 67.5 -29
      vertex -7.5 67.5 -35
      vertex -6.92705 69.2634 -35
    endloop
  endfacet
  facet normal 0.951057 -0.309017 1.16471e-16
    outer loop
      vertex -6.92705 69.2634 -29
      vertex -7.5 67.5 -29
      vertex -6.92705 69.2634 -35
    endloop
  endfacet
  facet normal 0.951057 0.309017 1.16471e-16
    outer loop
      vertex -6.92705 65.7366 -35
      vertex -7.5 67.5 -35
      vertex -7.5 67.5 -29
    endloop
  endfacet
  facet normal 0.951057 0.309017 1.16471e-16
    outer loop
      vertex -6.92705 65.7366 -29
      vertex -6.92705 65.7366 -35
      vertex -7.5 67.5 -29
    endloop
  endfacet
  facet normal 0.587785 0.809017 7.19829e-17
    outer loop
      vertex -6.92705 65.7366 -35
      vertex -6.92705 65.7366 -29
      vertex -5.42705 64.6468 -35
    endloop
  endfacet
  facet normal 0.587785 0.809017 7.19829e-17
    outer loop
      vertex -5.42705 64.6468 -35
      vertex -6.92705 65.7366 -29
      vertex -5.42705 64.6468 -29
    endloop
  endfacet
  facet normal 0 1 0
    outer loop
      vertex -5.42705 64.6468 -35
      vertex -5.42705 64.6468 -29
      vertex -3.57295 64.6468 -35
    endloop
  endfacet
  facet normal 0 1 0
    outer loop
      vertex -3.57295 64.6468 -35
      vertex -5.42705 64.6468 -29
      vertex -3.57295 64.6468 -29
    endloop
  endfacet
  facet normal -0.951057 0.309017 -1.16471e-16
    outer loop
      vertex -14.5729 12.7366 -35
      vertex -14.5729 12.7366 -29
      vertex -14 14.5 -35
    endloop
  endfacet
  facet normal -0.951057 0.309017 -1.16471e-16
    outer loop
      vertex -14 14.5 -35
      vertex -14.5729 12.7366 -29
      vertex -14 14.5 -29
    endloop
  endfacet
  facet normal -0.587785 0.809017 -7.19829e-17
    outer loop
      vertex -16.0729 11.6468 -35
      vertex -16.0729 11.6468 -29
      vertex -14.5729 12.7366 -35
    endloop
  endfacet
  facet normal -0.587785 0.809017 -7.19829e-17
    outer loop
      vertex -14.5729 12.7366 -35
      vertex -16.0729 11.6468 -29
      vertex -14.5729 12.7366 -29
    endloop
  endfacet
  facet normal -0.951057 -0.309017 -1.16471e-16
    outer loop
      vertex -14.5729 16.2634 -35
      vertex -14 14.5 -35
      vertex -14.5729 16.2634 -29
    endloop
  endfacet
  facet normal -0.951057 -0.309017 -1.16471e-16
    outer loop
      vertex -14.5729 16.2634 -29
      vertex -14 14.5 -35
      vertex -14 14.5 -29
    endloop
  endfacet
  facet normal -0.587785 -0.809017 -7.19829e-17
    outer loop
      vertex -16.0729 17.3532 -29
      vertex -16.0729 17.3532 -35
      vertex -14.5729 16.2634 -35
    endloop
  endfacet
  facet normal -0.587785 -0.809017 -7.19829e-17
    outer loop
      vertex -14.5729 16.2634 -29
      vertex -16.0729 17.3532 -29
      vertex -14.5729 16.2634 -35
    endloop
  endfacet
  facet normal 0 -1 0
    outer loop
      vertex -17.9271 17.3532 -29
      vertex -17.9271 17.3532 -35
      vertex -16.0729 17.3532 -35
    endloop
  endfacet
  facet normal 0 -1 0
    outer loop
      vertex -16.0729 17.3532 -29
      vertex -17.9271 17.3532 -29
      vertex -16.0729 17.3532 -35
    endloop
  endfacet
  facet normal 0.587785 -0.809017 7.19829e-17
    outer loop
      vertex -19.4271 16.2634 -29
      vertex -19.4271 16.2634 -35
      vertex -17.9271 17.3532 -35
    endloop
  endfacet
  facet normal 0.587785 -0.809017 7.19829e-17
    outer loop
      vertex -17.9271 17.3532 -29
      vertex -19.4271 16.2634 -29
      vertex -17.9271 17.3532 -35
    endloop
  endfacet
  facet normal 0.951057 -0.309017 1.16471e-16
    outer loop
      vertex -20 14.5 -29
      vertex -20 14.5 -35
      vertex -19.4271 16.2634 -35
    endloop
  endfacet
  facet normal 0.951057 -0.309017 1.16471e-16
    outer loop
      vertex -19.4271 16.2634 -29
      vertex -20 14.5 -29
      vertex -19.4271 16.2634 -35
    endloop
  endfacet
  facet normal 0.951057 0.309017 1.16471e-16
    outer loop
      vertex -19.4271 12.7366 -35
      vertex -20 14.5 -35
      vertex -20 14.5 -29
    endloop
  endfacet
  facet normal 0.951057 0.309017 1.16471e-16
    outer loop
      vertex -19.4271 12.7366 -29
      vertex -19.4271 12.7366 -35
      vertex -20 14.5 -29
    endloop
  endfacet
  facet normal 0.587785 0.809017 7.19829e-17
    outer loop
      vertex -19.4271 12.7366 -35
      vertex -19.4271 12.7366 -29
      vertex -17.9271 11.6468 -35
    endloop
  endfacet
  facet normal 0.587785 0.809017 7.19829e-17
    outer loop
      vertex -17.9271 11.6468 -35
      vertex -19.4271 12.7366 -29
      vertex -17.9271 11.6468 -29
    endloop
  endfacet
  facet normal 0 1 0
    outer loop
      vertex -17.9271 11.6468 -35
      vertex -17.9271 11.6468 -29
      vertex -16.0729 11.6468 -35
    endloop
  endfacet
  facet normal 0 1 0
    outer loop
      vertex -16.0729 11.6468 -35
      vertex -17.9271 11.6468 -29
      vertex -16.0729 11.6468 -29
    endloop
  endfacet
  facet normal -0.587785 0.809017 -7.19829e-17
    outer loop
      vertex -16.0729 64.6468 -35
      vertex -16.0729 64.6468 -29
      vertex -14.5729 65.7366 -35
    endloop
  endfacet
  facet normal -0.587785 0.809017 -7.19829e-17
    outer loop
      vertex -14.5729 65.7366 -35
      vertex -16.0729 64.6468 -29
      vertex -14.5729 65.7366 -29
    endloop
  endfacet
  facet normal -0.951057 0.309017 -1.16471e-16
    outer loop
      vertex -14.5729 65.7366 -35
      vertex -14.5729 65.7366 -29
      vertex -14 67.5 -35
    endloop
  endfacet
  facet normal -0.951057 0.309017 -1.16471e-16
    outer loop
      vertex -14 67.5 -35
      vertex -14.5729 65.7366 -29
      vertex -14 67.5 -29
    endloop
  endfacet
  facet normal -0.951057 -0.309017 -1.16471e-16
    outer loop
      vertex -14.5729 69.2634 -35
      vertex -14 67.5 -35
      vertex -14.5729 69.2634 -29
    endloop
  endfacet
  facet normal -0.951057 -0.309017 -1.16471e-16
    outer loop
      vertex -14.5729 69.2634 -29
      vertex -14 67.5 -35
      vertex -14 67.5 -29
    endloop
  endfacet
  facet normal -0.587785 -0.809017 -7.19829e-17
    outer loop
      vertex -16.0729 70.3532 -29
      vertex -16.0729 70.3532 -35
      vertex -14.5729 69.2634 -35
    endloop
  endfacet
  facet normal -0.587785 -0.809017 -7.19829e-17
    outer loop
      vertex -14.5729 69.2634 -29
      vertex -16.0729 70.3532 -29
      vertex -14.5729 69.2634 -35
    endloop
  endfacet
  facet normal 0 -1 0
    outer loop
      vertex -17.9271 70.3532 -29
      vertex -17.9271 70.3532 -35
      vertex -16.0729 70.3532 -35
    endloop
  endfacet
  facet normal 0 -1 0
    outer loop
      vertex -16.0729 70.3532 -29
      vertex -17.9271 70.3532 -29
      vertex -16.0729 70.3532 -35
    endloop
  endfacet
  facet normal 0.587785 -0.809017 7.19829e-17
    outer loop
      vertex -19.4271 69.2634 -29
      vertex -19.4271 69.2634 -35
      vertex -17.9271 70.3532 -35
    endloop
  endfacet
  facet normal 0.587785 -0.809017 7.19829e-17
    outer loop
      vertex -17.9271 70.3532 -29
      vertex -19.4271 69.2634 -29
      vertex -17.9271 70.3532 -35
    endloop
  endfacet
  facet normal 0.951057 -0.309017 1.16471e-16
    outer loop
      vertex -20 67.5 -29
      vertex -20 67.5 -35
      vertex -19.4271 69.2634 -35
    endloop
  endfacet
  facet normal 0.951057 -0.309017 1.16471e-16
    outer loop
      vertex -19.4271 69.2634 -29
      vertex -20 67.5 -29
      vertex -19.4271 69.2634 -35
    endloop
  endfacet
  facet normal 0.951057 0.309017 1.16471e-16
    outer loop
      vertex -19.4271 65.7366 -35
      vertex -20 67.5 -35
      vertex -20 67.5 -29
    endloop
  endfacet
  facet normal 0.951057 0.309017 1.16471e-16
    outer loop
      vertex -19.4271 65.7366 -29
      vertex -19.4271 65.7366 -35
      vertex -20 67.5 -29
    endloop
  endfacet
  facet normal 0.587785 0.809017 7.19829e-17
    outer loop
      vertex -19.4271 65.7366 -35
      vertex -19.4271 65.7366 -29
      vertex -17.9271 64.6468 -35
    endloop
  endfacet
  facet normal 0.587785 0.809017 7.19829e-17
    outer loop
      vertex -17.9271 64.6468 -35
      vertex -19.4271 65.7366 -29
      vertex -17.9271 64.6468 -29
    endloop
  endfacet
  facet normal 0 1 0
    outer loop
      vertex -17.9271 64.6468 -35
      vertex -17.9271 64.6468 -29
      vertex -16.0729 64.6468 -35
    endloop
  endfacet
  facet normal 0 1 0
    outer loop
      vertex -16.0729 64.6468 -35
      vertex -17.9271 64.6468 -29
      vertex -16.0729 64.6468 -29
    endloop
  endfacet
  facet normal -0.951057 0.309017 -1.16471e-16
    outer loop
      vertex -27.0729 12.7366 -35
      vertex -27.0729 12.7366 -29
      vertex -26.5 14.5 -35
    endloop
  endfacet
  facet normal -0.951057 0.309017 -1.16471e-16
    outer loop
      vertex -26.5 14.5 -35
      vertex -27.0729 12.7366 -29
      vertex -26.5 14.5 -29
    endloop
  endfacet
  facet normal -0.587785 0.809017 -7.19829e-17
    outer loop
      vertex -28.5729 11.6468 -35
      vertex -28.5729 11.6468 -29
      vertex -27.0729 12.7366 -35
    endloop
  endfacet
  facet normal -0.587785 0.809017 -7.19829e-17
    outer loop
      vertex -27.0729 12.7366 -35
      vertex -28.5729 11.6468 -29
      vertex -27.0729 12.7366 -29
    endloop
  endfacet
  facet normal -0.951057 -0.309017 -1.16471e-16
    outer loop
      vertex -27.0729 16.2634 -35
      vertex -26.5 14.5 -35
      vertex -27.0729 16.2634 -29
    endloop
  endfacet
  facet normal -0.951057 -0.309017 -1.16471e-16
    outer loop
      vertex -27.0729 16.2634 -29
      vertex -26.5 14.5 -35
      vertex -26.5 14.5 -29
    endloop
  endfacet
  facet normal -0.587785 -0.809017 -7.19829e-17
    outer loop
      vertex -28.5729 17.3532 -29
      vertex -28.5729 17.3532 -35
      vertex -27.0729 16.2634 -35
    endloop
  endfacet
  facet normal -0.587785 -0.809017 -7.19829e-17
    outer loop
      vertex -27.0729 16.2634 -29
      vertex -28.5729 17.3532 -29
      vertex -27.0729 16.2634 -35
    endloop
  endfacet
  facet normal 0 -1 0
    outer loop
      vertex -30.4271 17.3532 -29
      vertex -30.4271 17.3532 -35
      vertex -28.5729 17.3532 -35
    endloop
  endfacet
  facet normal 0 -1 0
    outer loop
      vertex -28.5729 17.3532 -29
      vertex -30.4271 17.3532 -29
      vertex -28.5729 17.3532 -35
    endloop
  endfacet
  facet normal 0.587785 -0.809017 7.19829e-17
    outer loop
      vertex -31.9271 16.2634 -29
      vertex -31.9271 16.2634 -35
      vertex -30.4271 17.3532 -35
    endloop
  endfacet
  facet normal 0.587785 -0.809017 7.19829e-17
    outer loop
      vertex -30.4271 17.3532 -29
      vertex -31.9271 16.2634 -29
      vertex -30.4271 17.3532 -35
    endloop
  endfacet
  facet normal 0.951057 -0.309017 1.16471e-16
    outer loop
      vertex -32.5 14.5 -29
      vertex -32.5 14.5 -35
      vertex -31.9271 16.2634 -35
    endloop
  endfacet
  facet normal 0.951057 -0.309017 1.16471e-16
    outer loop
      vertex -31.9271 16.2634 -29
      vertex -32.5 14.5 -29
      vertex -31.9271 16.2634 -35
    endloop
  endfacet
  facet normal 0.951057 0.309017 1.16471e-16
    outer loop
      vertex -31.9271 12.7366 -35
      vertex -32.5 14.5 -35
      vertex -32.5 14.5 -29
    endloop
  endfacet
  facet normal 0.951057 0.309017 1.16471e-16
    outer loop
      vertex -31.9271 12.7366 -29
      vertex -31.9271 12.7366 -35
      vertex -32.5 14.5 -29
    endloop
  endfacet
  facet normal 0.587785 0.809017 7.19829e-17
    outer loop
      vertex -31.9271 12.7366 -35
      vertex -31.9271 12.7366 -29
      vertex -30.4271 11.6468 -35
    endloop
  endfacet
  facet normal 0.587785 0.809017 7.19829e-17
    outer loop
      vertex -30.4271 11.6468 -35
      vertex -31.9271 12.7366 -29
      vertex -30.4271 11.6468 -29
    endloop
  endfacet
  facet normal 0 1 0
    outer loop
      vertex -30.4271 11.6468 -35
      vertex -30.4271 11.6468 -29
      vertex -28.5729 11.6468 -35
    endloop
  endfacet
  facet normal 0 1 0
    outer loop
      vertex -28.5729 11.6468 -35
      vertex -30.4271 11.6468 -29
      vertex -28.5729 11.6468 -29
    endloop
  endfacet
  facet normal -0.951057 0.309017 -1.16471e-16
    outer loop
      vertex -27.0729 65.7366 -35
      vertex -27.0729 65.7366 -29
      vertex -26.5 67.5 -35
    endloop
  endfacet
  facet normal -0.951057 0.309017 -1.16471e-16
    outer loop
      vertex -26.5 67.5 -35
      vertex -27.0729 65.7366 -29
      vertex -26.5 67.5 -29
    endloop
  endfacet
  facet normal -0.587785 0.809017 -7.19829e-17
    outer loop
      vertex -28.5729 64.6468 -35
      vertex -28.5729 64.6468 -29
      vertex -27.0729 65.7366 -35
    endloop
  endfacet
  facet normal -0.587785 0.809017 -7.19829e-17
    outer loop
      vertex -27.0729 65.7366 -35
      vertex -28.5729 64.6468 -29
      vertex -27.0729 65.7366 -29
    endloop
  endfacet
  facet normal -0.951057 -0.309017 -1.16471e-16
    outer loop
      vertex -27.0729 69.2634 -35
      vertex -26.5 67.5 -35
      vertex -27.0729 69.2634 -29
    endloop
  endfacet
  facet normal -0.951057 -0.309017 -1.16471e-16
    outer loop
      vertex -27.0729 69.2634 -29
      vertex -26.5 67.5 -35
      vertex -26.5 67.5 -29
    endloop
  endfacet
  facet normal -0.587785 -0.809017 -7.19829e-17
    outer loop
      vertex -28.5729 70.3532 -29
      vertex -28.5729 70.3532 -35
      vertex -27.0729 69.2634 -35
    endloop
  endfacet
  facet normal -0.587785 -0.809017 -7.19829e-17
    outer loop
      vertex -27.0729 69.2634 -29
      vertex -28.5729 70.3532 -29
      vertex -27.0729 69.2634 -35
    endloop
  endfacet
  facet normal 0 -1 0
    outer loop
      vertex -30.4271 70.3532 -29
      vertex -30.4271 70.3532 -35
      vertex -28.5729 70.3532 -35
    endloop
  endfacet
  facet normal 0 -1 0
    outer loop
      vertex -28.5729 70.3532 -29
      vertex -30.4271 70.3532 -29
      vertex -28.5729 70.3532 -35
    endloop
  endfacet
  facet normal 0.587785 -0.809017 7.19829e-17
    outer loop
      vertex -31.9271 69.2634 -29
      vertex -31.9271 69.2634 -35
      vertex -30.4271 70.3532 -35
    endloop
  endfacet
  facet normal 0.587785 -0.809017 7.19829e-17
    outer loop
      vertex -30.4271 70.3532 -29
      vertex -31.9271 69.2634 -29
      vertex -30.4271 70.3532 -35
    endloop
  endfacet
  facet normal 0.951057 -0.309017 1.16471e-16
    outer loop
      vertex -32.5 67.5 -29
      vertex -32.5 67.5 -35
      vertex -31.9271 69.2634 -35
    endloop
  endfacet
  facet normal 0.951057 -0.309017 1.16471e-16
    outer loop
      vertex -31.9271 69.2634 -29
      vertex -32.5 67.5 -29
      vertex -31.9271 69.2634 -35
    endloop
  endfacet
  facet normal 0.951057 0.309017 1.16471e-16
    outer loop
      vertex -31.9271 65.7366 -35
      vertex -32.5 67.5 -35
      vertex -32.5 67.5 -29
    endloop
  endfacet
  facet normal 0.951057 0.309017 1.16471e-16
    outer loop
      vertex -31.9271 65.7366 -29
      vertex -31.9271 65.7366 -35
      vertex -32.5 67.5 -29
    endloop
  endfacet
  facet normal 0.587785 0.809017 7.19829e-17
    outer loop
      vertex -31.9271 65.7366 -35
      vertex -31.9271 65.7366 -29
      vertex -30.4271 64.6468 -35
    endloop
  endfacet
  facet normal 0.587785 0.809017 7.19829e-17
    outer loop
      vertex -30.4271 64.6468 -35
      vertex -31.9271 65.7366 -29
      vertex -30.4271 64.6468 -29
    endloop
  endfacet
  facet normal 0 1 0
    outer loop
      vertex -30.4271 64.6468 -35
      vertex -30.4271 64.6468 -29
      vertex -28.5729 64.6468 -35
    endloop
  endfacet
  facet normal 0 1 0
    outer loop
      vertex -28.5729 64.6468 -35
      vertex -30.4271 64.6468 -29
      vertex -28.5729 64.6468 -29
    endloop
  endfacet
  facet normal -0.951057 0.309017 -1.16471e-16
    outer loop
      vertex -39.5729 12.7366 -35
      vertex -39.5729 12.7366 -29
      vertex -39 14.5 -35
    endloop
  endfacet
  facet normal -0.951057 0.309017 -1.16471e-16
    outer loop
      vertex -39 14.5 -35
      vertex -39.5729 12.7366 -29
      vertex -39 14.5 -29
    endloop
  endfacet
  facet normal -0.587785 0.809017 -7.19829e-17
    outer loop
      vertex -41.0729 11.6468 -35
      vertex -41.0729 11.6468 -29
      vertex -39.5729 12.7366 -35
    endloop
  endfacet
  facet normal -0.587785 0.809017 -7.19829e-17
    outer loop
      vertex -39.5729 12.7366 -35
      vertex -41.0729 11.6468 -29
      vertex -39.5729 12.7366 -29
    endloop
  endfacet
  facet normal -0.951057 -0.309017 -1.16471e-16
    outer loop
      vertex -39.5729 16.2634 -35
      vertex -39 14.5 -35
      vertex -39.5729 16.2634 -29
    endloop
  endfacet
  facet normal -0.951057 -0.309017 -1.16471e-16
    outer loop
      vertex -39.5729 16.2634 -29
      vertex -39 14.5 -35
      vertex -39 14.5 -29
    endloop
  endfacet
  facet normal -0.587785 -0.809017 -7.19829e-17
    outer loop
      vertex -41.0729 17.3532 -29
      vertex -41.0729 17.3532 -35
      vertex -39.5729 16.2634 -35
    endloop
  endfacet
  facet normal -0.587785 -0.809017 -7.19829e-17
    outer loop
      vertex -39.5729 16.2634 -29
      vertex -41.0729 17.3532 -29
      vertex -39.5729 16.2634 -35
    endloop
  endfacet
  facet normal 0 -1 0
    outer loop
      vertex -42.9271 17.3532 -29
      vertex -42.9271 17.3532 -35
      vertex -41.0729 17.3532 -35
    endloop
  endfacet
  facet normal 0 -1 0
    outer loop
      vertex -41.0729 17.3532 -29
      vertex -42.9271 17.3532 -29
      vertex -41.0729 17.3532 -35
    endloop
  endfacet
  facet normal 0.587785 -0.809017 7.19829e-17
    outer loop
      vertex -44.4271 16.2634 -29
      vertex -44.4271 16.2634 -35
      vertex -42.9271 17.3532 -35
    endloop
  endfacet
  facet normal 0.587785 -0.809017 7.19829e-17
    outer loop
      vertex -42.9271 17.3532 -29
      vertex -44.4271 16.2634 -29
      vertex -42.9271 17.3532 -35
    endloop
  endfacet
  facet normal 0.951057 -0.309017 1.16471e-16
    outer loop
      vertex -45 14.5 -29
      vertex -45 14.5 -35
      vertex -44.4271 16.2634 -35
    endloop
  endfacet
  facet normal 0.951057 -0.309017 1.16471e-16
    outer loop
      vertex -44.4271 16.2634 -29
      vertex -45 14.5 -29
      vertex -44.4271 16.2634 -35
    endloop
  endfacet
  facet normal 0.951057 0.309017 1.16471e-16
    outer loop
      vertex -44.4271 12.7366 -35
      vertex -45 14.5 -35
      vertex -45 14.5 -29
    endloop
  endfacet
  facet normal 0.951057 0.309017 1.16471e-16
    outer loop
      vertex -44.4271 12.7366 -29
      vertex -44.4271 12.7366 -35
      vertex -45 14.5 -29
    endloop
  endfacet
  facet normal 0.587785 0.809017 7.19829e-17
    outer loop
      vertex -44.4271 12.7366 -35
      vertex -44.4271 12.7366 -29
      vertex -42.9271 11.6468 -35
    endloop
  endfacet
  facet normal 0.587785 0.809017 7.19829e-17
    outer loop
      vertex -42.9271 11.6468 -35
      vertex -44.4271 12.7366 -29
      vertex -42.9271 11.6468 -29
    endloop
  endfacet
  facet normal 0 1 0
    outer loop
      vertex -42.9271 11.6468 -35
      vertex -42.9271 11.6468 -29
      vertex -41.0729 11.6468 -35
    endloop
  endfacet
  facet normal 0 1 0
    outer loop
      vertex -41.0729 11.6468 -35
      vertex -42.9271 11.6468 -29
      vertex -41.0729 11.6468 -29
    endloop
  endfacet
  facet normal -0.587785 0.809017 -7.19829e-17
    outer loop
      vertex -41.0729 64.6468 -35
      vertex -41.0729 64.6468 -29
      vertex -39.5729 65.7366 -35
    endloop
  endfacet
  facet normal -0.587785 0.809017 -7.19829e-17
    outer loop
      vertex -39.5729 65.7366 -35
      vertex -41.0729 64.6468 -29
      vertex -39.5729 65.7366 -29
    endloop
  endfacet
  facet normal -0.951057 0.309017 -1.16471e-16
    outer loop
      vertex -39.5729 65.7366 -35
      vertex -39.5729 65.7366 -29
      vertex -39 67.5 -35
    endloop
  endfacet
  facet normal -0.951057 0.309017 -1.16471e-16
    outer loop
      vertex -39 67.5 -35
      vertex -39.5729 65.7366 -29
      vertex -39 67.5 -29
    endloop
  endfacet
  facet normal -0.951057 -0.309017 -1.16471e-16
    outer loop
      vertex -39.5729 69.2634 -35
      vertex -39 67.5 -35
      vertex -39.5729 69.2634 -29
    endloop
  endfacet
  facet normal -0.951057 -0.309017 -1.16471e-16
    outer loop
      vertex -39.5729 69.2634 -29
      vertex -39 67.5 -35
      vertex -39 67.5 -29
    endloop
  endfacet
  facet normal -0.587785 -0.809017 -7.19829e-17
    outer loop
      vertex -41.0729 70.3532 -29
      vertex -41.0729 70.3532 -35
      vertex -39.5729 69.2634 -35
    endloop
  endfacet
  facet normal -0.587785 -0.809017 -7.19829e-17
    outer loop
      vertex -39.5729 69.2634 -29
      vertex -41.0729 70.3532 -29
      vertex -39.5729 69.2634 -35
    endloop
  endfacet
  facet normal 0 -1 0
    outer loop
      vertex -42.9271 70.3532 -29
      vertex -42.9271 70.3532 -35
      vertex -41.0729 70.3532 -35
    endloop
  endfacet
  facet normal 0 -1 0
    outer loop
      vertex -41.0729 70.3532 -29
      vertex -42.9271 70.3532 -29
      vertex -41.0729 70.3532 -35
    endloop
  endfacet
  facet normal 0.587785 -0.809017 7.19829e-17
    outer loop
      vertex -44.4271 69.2634 -29
      vertex -44.4271 69.2634 -35
      vertex -42.9271 70.3532 -35
    endloop
  endfacet
  facet normal 0.587785 -0.809017 7.19829e-17
    outer loop
      vertex -42.9271 70.3532 -29
      vertex -44.4271 69.2634 -29
      vertex -42.9271 70.3532 -35
    endloop
  endfacet
  facet normal 0.951057 -0.309017 1.16471e-16
    outer loop
      vertex -45 67.5 -29
      vertex -45 67.5 -35
      vertex -44.4271 69.2634 -35
    endloop
  endfacet
  facet normal 0.951057 -0.309017 1.16471e-16
    outer loop
      vertex -44.4271 69.2634 -29
      vertex -45 67.5 -29
      vertex -44.4271 69.2634 -35
    endloop
  endfacet
  facet normal 0.951057 0.309017 1.16471e-16
    outer loop
      vertex -44.4271 65.7366 -35
      vertex -45 67.5 -35
      vertex -45 67.5 -29
    endloop
  endfacet
  facet normal 0.951057 0.309017 1.16471e-16
    outer loop
      vertex -44.4271 65.7366 -29
      vertex -44.4271 65.7366 -35
      vertex -45 67.5 -29
    endloop
  endfacet
  facet normal 0.587785 0.809017 7.19829e-17
    outer loop
      vertex -44.4271 65.7366 -35
      vertex -44.4271 65.7366 -29
      vertex -42.9271 64.6468 -35
    endloop
  endfacet
  facet normal 0.587785 0.809017 7.19829e-17
    outer loop
      vertex -42.9271 64.6468 -35
      vertex -44.4271 65.7366 -29
      vertex -42.9271 64.6468 -29
    endloop
  endfacet
  facet normal 0 1 0
    outer loop
      vertex -42.9271 64.6468 -35
      vertex -42.9271 64.6468 -29
      vertex -41.0729 64.6468 -35
    endloop
  endfacet
  facet normal 0 1 0
    outer loop
      vertex -41.0729 64.6468 -35
      vertex -42.9271 64.6468 -29
      vertex -41.0729 64.6468 -29
    endloop
  endfacet
  facet normal -0.309017 -0.951056 -3.78437e-17
    outer loop
      vertex -6.46352 92.4266 -29
      vertex -6.46352 92.4266 -35
      vertex -4.78647 91.8817 -35
    endloop
  endfacet
  facet normal -0.309017 -0.951056 -3.78437e-17
    outer loop
      vertex -4.78647 91.8817 -29
      vertex -6.46352 92.4266 -29
      vertex -4.78647 91.8817 -35
    endloop
  endfacet
  facet normal -1 0 -1.22465e-16
    outer loop
      vertex -4.78647 91.8817 -35
      vertex -4.78647 90.1183 -35
      vertex -4.78647 91.8817 -29
    endloop
  endfacet
  facet normal -1 0 -1.22465e-16
    outer loop
      vertex -4.78647 91.8817 -29
      vertex -4.78647 90.1183 -35
      vertex -4.78647 90.1183 -29
    endloop
  endfacet
  facet normal 0.809017 -0.587785 9.9076e-17
    outer loop
      vertex -7.5 91 -29
      vertex -7.5 91 -35
      vertex -6.46352 92.4266 -35
    endloop
  endfacet
  facet normal 0.809017 -0.587785 9.9076e-17
    outer loop
      vertex -6.46352 92.4266 -29
      vertex -7.5 91 -29
      vertex -6.46352 92.4266 -35
    endloop
  endfacet
  facet normal 0.809017 0.587785 9.9076e-17
    outer loop
      vertex -6.46352 89.5734 -35
      vertex -7.5 91 -35
      vertex -7.5 91 -29
    endloop
  endfacet
  facet normal 0.809017 0.587785 9.9076e-17
    outer loop
      vertex -6.46352 89.5734 -29
      vertex -6.46352 89.5734 -35
      vertex -7.5 91 -29
    endloop
  endfacet
  facet normal -0.309017 0.951056 -3.78437e-17
    outer loop
      vertex -6.46352 89.5734 -35
      vertex -6.46352 89.5734 -29
      vertex -4.78647 90.1183 -35
    endloop
  endfacet
  facet normal -0.309017 0.951056 -3.78437e-17
    outer loop
      vertex -4.78647 90.1183 -35
      vertex -6.46352 89.5734 -29
      vertex -4.78647 90.1183 -29
    endloop
  endfacet
  facet normal -0.309017 -0.951056 -3.78437e-17
    outer loop
      vertex -40.9635 92.4266 -29
      vertex -40.9635 92.4266 -35
      vertex -39.2865 91.8817 -35
    endloop
  endfacet
  facet normal -0.309017 -0.951056 -3.78437e-17
    outer loop
      vertex -39.2865 91.8817 -29
      vertex -40.9635 92.4266 -29
      vertex -39.2865 91.8817 -35
    endloop
  endfacet
  facet normal -1 0 -1.22465e-16
    outer loop
      vertex -39.2865 91.8817 -35
      vertex -39.2865 90.1183 -35
      vertex -39.2865 91.8817 -29
    endloop
  endfacet
  facet normal -1 0 -1.22465e-16
    outer loop
      vertex -39.2865 91.8817 -29
      vertex -39.2865 90.1183 -35
      vertex -39.2865 90.1183 -29
    endloop
  endfacet
  facet normal 0.809017 -0.587785 9.9076e-17
    outer loop
      vertex -42 91 -29
      vertex -42 91 -35
      vertex -40.9635 92.4266 -35
    endloop
  endfacet
  facet normal 0.809017 -0.587785 9.9076e-17
    outer loop
      vertex -40.9635 92.4266 -29
      vertex -42 91 -29
      vertex -40.9635 92.4266 -35
    endloop
  endfacet
  facet normal 0.809017 0.587785 9.9076e-17
    outer loop
      vertex -40.9635 89.5734 -35
      vertex -42 91 -35
      vertex -42 91 -29
    endloop
  endfacet
  facet normal 0.809017 0.587785 9.9076e-17
    outer loop
      vertex -40.9635 89.5734 -29
      vertex -40.9635 89.5734 -35
      vertex -42 91 -29
    endloop
  endfacet
  facet normal -0.309017 0.951056 -3.78437e-17
    outer loop
      vertex -40.9635 89.5734 -35
      vertex -40.9635 89.5734 -29
      vertex -39.2865 90.1183 -35
    endloop
  endfacet
  facet normal -0.309017 0.951056 -3.78437e-17
    outer loop
      vertex -39.2865 90.1183 -35
      vertex -40.9635 89.5734 -29
      vertex -39.2865 90.1183 -29
    endloop
  endfacet
endsolid OpenSCAD_Model
